<svg width="25" height="24" viewBox="0 0 25 24" fill="none" xmlns="http://www.w3.org/2000/svg">
<path stroke="none" fill-rule="evenodd" clip-rule="evenodd" d="M3.33325 12C3.33325 16.45 6.58325 20.15 10.8333 20.9L10.8834 20.8599C10.8667 20.8566 10.85 20.8533 10.8333 20.85V14.5H8.58325V12H10.8333V10C10.8333 7.75 12.2833 6.5 14.3333 6.5C14.9833 6.5 15.6833 6.6 16.3333 6.7V9H15.1833C14.0833 9 13.8333 9.55 13.8333 10.25V12H16.2333L15.8333 14.5H13.8333V20.85C13.8165 20.8533 13.7998 20.8566 13.7831 20.8599L13.8333 20.9C18.0833 20.15 21.3333 16.45 21.3333 12C21.3333 7.05 17.2833 3 12.3333 3C7.38325 3 3.33325 7.05 3.33325 12Z" fill="#262626"/>
</svg>
