<svg width="25" height="24" viewBox="0 0 25 24" fill="none" xmlns="http://www.w3.org/2000/svg">
<path stroke="none" d="M12.3337 3.27344C9.96358 3.27344 9.66614 3.2838 8.73526 3.32616C7.80619 3.36871 7.17203 3.5158 6.61714 3.73162C6.04316 3.95453 5.55626 4.25271 5.07119 4.73798C4.58575 5.22307 4.28757 5.70998 4.06394 6.2838C3.84759 6.83889 3.70032 7.47326 3.6585 8.40198C3.61687 9.33289 3.60596 9.63053 3.60596 12.0007C3.60596 14.3709 3.6165 14.6674 3.65868 15.5983C3.70141 16.5274 3.8485 17.1616 4.06413 17.7165C4.28721 18.2905 4.58538 18.7774 5.07064 19.2625C5.55553 19.748 6.04243 20.0469 6.61605 20.2698C7.1713 20.4856 7.80565 20.6327 8.73453 20.6753C9.66541 20.7176 9.96267 20.728 12.3326 20.728C14.7029 20.728 14.9994 20.7176 15.9303 20.6753C16.8594 20.6327 17.4943 20.4856 18.0495 20.2698C18.6233 20.0469 19.1095 19.748 19.5944 19.2625C20.0798 18.7774 20.378 18.2905 20.6016 17.7167C20.8162 17.1616 20.9634 16.5273 21.0071 15.5985C21.0489 14.6676 21.0598 14.3709 21.0598 12.0007C21.0598 9.63053 21.0489 9.33307 21.0071 8.40216C20.9634 7.47307 20.8162 6.83889 20.6016 6.28398C20.378 5.70998 20.0798 5.22307 19.5944 4.73798C19.1089 4.25253 18.6235 3.95435 18.049 3.73162C17.4926 3.5158 16.8581 3.36871 15.929 3.32616C14.9982 3.2838 14.7018 3.27344 12.331 3.27344H12.3337ZM11.5508 4.84616C11.7832 4.8458 12.0424 4.84616 12.3337 4.84616C14.6638 4.84616 14.94 4.85453 15.8601 4.89635C16.711 4.93526 17.1728 5.07744 17.4804 5.19689C17.8877 5.35507 18.1781 5.54416 18.4833 5.84962C18.7888 6.15507 18.9779 6.44598 19.1364 6.85326C19.2558 7.16053 19.3982 7.62235 19.4369 8.47326C19.4787 9.39326 19.4878 9.66962 19.4878 11.9987C19.4878 14.3278 19.4787 14.6042 19.4369 15.5242C19.398 16.3751 19.2558 16.8369 19.1364 17.1442C18.9782 17.5514 18.7888 17.8414 18.4833 18.1467C18.1779 18.4522 17.8879 18.6413 17.4804 18.7994C17.1732 18.9194 16.711 19.0613 15.8601 19.1002C14.9402 19.142 14.6638 19.1511 12.3337 19.1511C10.0034 19.1511 9.72723 19.142 8.80725 19.1002C7.95637 19.0609 7.49457 18.9187 7.18676 18.7993C6.7795 18.6411 6.4886 18.452 6.18315 18.1465C5.87771 17.8411 5.68862 17.5509 5.53008 17.1434C5.41063 16.8362 5.26827 16.3743 5.22954 15.5234C5.18773 14.6034 5.17936 14.3271 5.17936 11.9965C5.17936 9.66598 5.18773 9.39107 5.22954 8.47107C5.26845 7.62016 5.41063 7.15835 5.53008 6.85071C5.68826 6.44344 5.87771 6.15253 6.18315 5.84707C6.4886 5.54162 6.7795 5.35253 7.18676 5.19398C7.49438 5.07398 7.95637 4.93216 8.80725 4.89307C9.61232 4.85671 9.92431 4.8458 11.5508 4.84398V4.84616ZM16.9921 6.29526C16.4139 6.29526 15.9449 6.7638 15.9449 7.34216C15.9449 7.92035 16.4139 8.38944 16.9921 8.38944C17.5703 8.38944 18.0393 7.92035 18.0393 7.34216C18.0393 6.76398 17.5703 6.29489 16.9921 6.29489V6.29526ZM12.3337 7.51889C9.85868 7.51889 7.85201 9.52562 7.85201 12.0007C7.85201 14.4758 9.85868 16.4816 12.3337 16.4816C14.8087 16.4816 16.8146 14.4758 16.8146 12.0007C16.8146 9.52562 14.8085 7.51889 12.3335 7.51889H12.3337ZM12.3337 9.09162C13.9402 9.09162 15.2427 10.394 15.2427 12.0007C15.2427 13.6073 13.9402 14.9098 12.3337 14.9098C10.727 14.9098 9.42469 13.6073 9.42469 12.0007C9.42469 10.394 10.727 9.09162 12.3337 9.09162Z" fill="#262626"/>
<path stroke="none" d="M12.3337 3.27344C9.96358 3.27344 9.66614 3.2838 8.73526 3.32616C7.80619 3.36871 7.17203 3.5158 6.61714 3.73162C6.04316 3.95453 5.55626 4.25271 5.07119 4.73798C4.58575 5.22307 4.28757 5.70998 4.06394 6.2838C3.84759 6.83889 3.70032 7.47326 3.6585 8.40198C3.61687 9.33289 3.60596 9.63053 3.60596 12.0007C3.60596 14.3709 3.6165 14.6674 3.65868 15.5983C3.70141 16.5274 3.8485 17.1616 4.06413 17.7165C4.28721 18.2905 4.58538 18.7774 5.07064 19.2625C5.55553 19.748 6.04243 20.0469 6.61605 20.2698C7.1713 20.4856 7.80565 20.6327 8.73453 20.6753C9.66541 20.7176 9.96267 20.728 12.3326 20.728C14.7029 20.728 14.9994 20.7176 15.9303 20.6753C16.8594 20.6327 17.4943 20.4856 18.0495 20.2698C18.6233 20.0469 19.1095 19.748 19.5944 19.2625C20.0798 18.7774 20.378 18.2905 20.6016 17.7167C20.8162 17.1616 20.9634 16.5273 21.0071 15.5985C21.0489 14.6676 21.0598 14.3709 21.0598 12.0007C21.0598 9.63053 21.0489 9.33307 21.0071 8.40216C20.9634 7.47307 20.8162 6.83889 20.6016 6.28398C20.378 5.70998 20.0798 5.22307 19.5944 4.73798C19.1089 4.25253 18.6235 3.95435 18.049 3.73162C17.4926 3.5158 16.8581 3.36871 15.929 3.32616C14.9982 3.2838 14.7018 3.27344 12.331 3.27344H12.3337ZM11.5508 4.84616C11.7832 4.8458 12.0424 4.84616 12.3337 4.84616C14.6638 4.84616 14.94 4.85453 15.8601 4.89635C16.711 4.93526 17.1728 5.07744 17.4804 5.19689C17.8877 5.35507 18.1781 5.54416 18.4833 5.84962C18.7888 6.15507 18.9779 6.44598 19.1364 6.85326C19.2558 7.16053 19.3982 7.62235 19.4369 8.47326C19.4787 9.39326 19.4878 9.66962 19.4878 11.9987C19.4878 14.3278 19.4787 14.6042 19.4369 15.5242C19.398 16.3751 19.2558 16.8369 19.1364 17.1442C18.9782 17.5514 18.7888 17.8414 18.4833 18.1467C18.1779 18.4522 17.8879 18.6413 17.4804 18.7994C17.1732 18.9194 16.711 19.0613 15.8601 19.1002C14.9402 19.142 14.6638 19.1511 12.3337 19.1511C10.0034 19.1511 9.72723 19.142 8.80725 19.1002C7.95637 19.0609 7.49457 18.9187 7.18676 18.7993C6.7795 18.6411 6.4886 18.452 6.18315 18.1465C5.87771 17.8411 5.68862 17.5509 5.53008 17.1434C5.41063 16.8362 5.26827 16.3743 5.22954 15.5234C5.18773 14.6034 5.17936 14.3271 5.17936 11.9965C5.17936 9.66598 5.18773 9.39107 5.22954 8.47107C5.26845 7.62016 5.41063 7.15835 5.53008 6.85071C5.68826 6.44344 5.87771 6.15253 6.18315 5.84707C6.4886 5.54162 6.7795 5.35253 7.18676 5.19398C7.49438 5.07398 7.95637 4.93216 8.80725 4.89307C9.61232 4.85671 9.92431 4.8458 11.5508 4.84398V4.84616ZM16.9921 6.29526C16.4139 6.29526 15.9449 6.7638 15.9449 7.34216C15.9449 7.92035 16.4139 8.38944 16.9921 8.38944C17.5703 8.38944 18.0393 7.92035 18.0393 7.34216C18.0393 6.76398 17.5703 6.29489 16.9921 6.29489V6.29526ZM12.3337 7.51889C9.85868 7.51889 7.85201 9.52562 7.85201 12.0007C7.85201 14.4758 9.85868 16.4816 12.3337 16.4816C14.8087 16.4816 16.8146 14.4758 16.8146 12.0007C16.8146 9.52562 14.8085 7.51889 12.3335 7.51889H12.3337ZM12.3337 9.09162C13.9402 9.09162 15.2427 10.394 15.2427 12.0007C15.2427 13.6073 13.9402 14.9098 12.3337 14.9098C10.727 14.9098 9.42469 13.6073 9.42469 12.0007C9.42469 10.394 10.727 9.09162 12.3337 9.09162Z" fill="#262626"/>
</svg>
