<svg width="16" height="16" viewBox="0 0 16 16" stroke="black" fill="none" xmlns="http://www.w3.org/2000/svg">
    <path fill="none" d="M11.3333 1.33301H4.66659C2.82564 1.33301 1.33325 2.82539 1.33325 4.66634V11.333C1.33325 13.174 2.82564 14.6663 4.66659 14.6663H11.3333C13.1742 14.6663 14.6666 13.174 14.6666 11.333V4.66634C14.6666 2.82539 13.1742 1.33301 11.3333 1.33301Z"
          stroke-linecap="round" stroke-linejoin="round"/>
    <path fill="none" d="M10.6666 7.5802C10.7488 8.13503 10.6541 8.70168 10.3957 9.19954C10.1374 9.69741 9.72865 10.1011 9.22764 10.3533C8.72662 10.6055 8.15885 10.6933 7.60508 10.6042C7.0513 10.515 6.53973 10.2536 6.14311 9.85698C5.7465 9.46036 5.48504 8.94878 5.39593 8.39501C5.30682 7.84124 5.3946 7.27346 5.64677 6.77245C5.89894 6.27144 6.30268 5.86269 6.80054 5.60436C7.29841 5.34603 7.86506 5.25126 8.41989 5.33353C8.98583 5.41746 9.50979 5.68118 9.91435 6.08574C10.3189 6.4903 10.5826 7.01425 10.6666 7.5802Z"
          stroke-linecap="round" stroke-linejoin="round"/>
    <path fill="none" d="M11.9963 4.28444C12.0066 4.35379 11.9948 4.42462 11.9625 4.48686C11.9302 4.54909 11.8791 4.59956 11.8164 4.63108C11.7538 4.6626 11.6829 4.67357 11.6136 4.66243C11.5444 4.65129 11.4805 4.61861 11.4309 4.56904C11.3813 4.51946 11.3486 4.45551 11.3375 4.38629C11.3263 4.31707 11.3373 4.2461 11.3688 4.18347C11.4004 4.12084 11.4508 4.06975 11.5131 4.03746C11.5753 4.00517 11.6461 3.99332 11.7155 4.00361C11.7862 4.0141 11.8517 4.04706 11.9023 4.09763C11.9529 4.1482 11.9858 4.2137 11.9963 4.28444Z"
          stroke-linecap="round" stroke-linejoin="round"/>
</svg>
