<svg width="25" height="24" viewBox="0 0 25 24" fill="none" xmlns="http://www.w3.org/2000/svg">
<path stroke="none" d="M18.6586 5.6139L4.20949 11.187C3.22332 11.5826 3.22917 12.1327 4.02974 12.3779L7.6334 13.5027L9.01224 17.7301C9.17986 18.1928 9.09723 18.3763 9.5831 18.3763C9.95806 18.3763 10.1244 18.2054 10.3332 18.0014C10.466 17.8714 11.2545 17.1048 12.135 16.2488L15.8834 19.0184C16.5732 19.3989 17.0713 19.2018 17.243 18.3777L19.7036 6.78251C19.9555 5.77251 19.3185 5.31438 18.6586 5.6139ZM8.19895 13.2443L16.3216 8.11966C16.7271 7.87375 17.0989 8.00596 16.7936 8.27693L9.83851 14.5522L9.5677 17.4406L8.19895 13.2443Z" fill="#262626"/>
</svg>
