<svg width="48" height="48" viewBox="0 0 48 48" stroke="#000" fill="none" xmlns="http://www.w3.org/2000/svg">
<path fill="none" d="M36.6509 11.226L7.7527 22.3721C5.78035 23.1634 5.79205 24.2635 7.39319 24.754L14.6005 27.0036L17.3582 35.4584C17.6934 36.3838 17.5282 36.7508 18.4999 36.7508C19.2498 36.7508 19.5825 36.4089 20.0002 36.0009C20.2658 35.741 21.8428 34.2078 23.6036 32.4958L31.1006 38.0349C32.4801 38.796 33.4762 38.4017 33.8197 36.7536L38.7409 13.5632C39.2447 11.5432 37.9708 10.6269 36.6509 11.226ZM15.7316 26.4868L32.5 16.5C33.311 16.0082 33.6105 16.4581 33 17L20.5 29L19 35.5H18L15.7316 26.4868Z" stroke-width="2"/>
</svg>
