<svg width="16" height="16" viewBox="0 0 16 16" stroke="black" fill="none" xmlns="http://www.w3.org/2000/svg">
<path fill="none" d="M14.6666 2.67297C14.0862 3.07451 13.4436 3.38162 12.7636 3.58248C12.3985 3.17083 11.9135 2.87906 11.3739 2.74664C10.8343 2.61421 10.2663 2.64752 9.74663 2.84206C9.22699 3.0366 8.78079 3.38298 8.46839 3.83436C8.15599 4.28574 7.99246 4.82033 7.99992 5.36584V5.96029C6.93485 5.98738 5.87948 5.75569 4.9278 5.28585C3.97613 4.81602 3.15769 4.12262 2.54537 3.26742C2.54537 3.26742 0.121131 8.61749 5.57568 10.9953C4.32751 11.8263 2.84062 12.243 1.33325 12.1842C6.7878 15.1565 13.4545 12.1842 13.4545 5.34801C13.4539 5.18242 13.4377 5.01725 13.406 4.85461C14.0245 4.25629 14.461 3.50087 14.6666 2.67297Z" stroke-linecap="round" stroke-linejoin="round"/>
</svg>
