<svg width="25" height="24" viewBox="0 0 25 24" fill="none" xmlns="http://www.w3.org/2000/svg">
<path stroke="none" fill-rule="evenodd" clip-rule="evenodd" d="M13.1545 2.95834C15.3833 3.06788 17.4601 3.98698 19.0464 5.57429C20.7384 7.26735 21.6697 9.51789 21.6688 11.9112C21.6668 16.8501 17.6461 20.8686 12.7069 20.8686C10.8496 20.8686 9.37358 20.2979 8.42054 19.7783L3.66968 21.0239L4.94112 16.3822C4.15685 15.0238 3.74418 13.4829 3.74482 11.9041C3.74681 6.96537 7.76712 2.94727 12.7068 2.94727L13.1545 2.95834ZM8.64063 18.1567L8.91267 18.3181C10.0563 18.9964 11.3673 19.3553 12.7039 19.3558H12.7069C16.8125 19.3558 20.154 16.0159 20.1556 11.9107C20.1564 9.9214 19.3824 8.05084 17.976 6.64361C16.5696 5.23628 14.6994 4.46081 12.7099 4.46016C8.60114 4.46016 5.25959 7.79975 5.25795 11.9046C5.25739 13.3114 5.65118 14.6815 6.39682 15.8668L6.57393 16.1485L5.82144 18.8959L8.64063 18.1567ZM17.2218 14.0413C17.1659 13.9479 17.0166 13.8919 16.7927 13.7798C16.5688 13.6678 15.4678 13.1264 15.2626 13.0516C15.0573 12.977 14.908 12.9397 14.7588 13.1637C14.6095 13.3877 14.1804 13.8919 14.0497 14.0413C13.9191 14.1906 13.7885 14.2093 13.5646 14.0973C13.3407 13.9853 12.6191 13.7489 11.7638 12.9864C11.0981 12.3929 10.6487 11.66 10.5181 11.4359C10.3875 11.2119 10.5041 11.0907 10.6162 10.9792C10.717 10.8788 10.8402 10.7177 10.9522 10.587C11.0641 10.4564 11.1014 10.363 11.1761 10.2136C11.2507 10.0642 11.2134 9.93359 11.1574 9.82155C11.1014 9.70947 10.6536 8.6078 10.467 8.15965C10.2852 7.72326 10.1006 7.78234 9.96315 7.77544C9.8327 7.76898 9.68327 7.76756 9.53401 7.76756C9.38471 7.76756 9.14211 7.82353 8.93685 8.04765C8.73159 8.27168 8.15311 8.81322 8.15311 9.9148C8.15311 11.0165 8.95552 12.0807 9.06749 12.2301C9.17945 12.3795 10.6465 14.6401 12.8928 15.6097C13.4271 15.8403 13.8442 15.978 14.1694 16.0811C14.7058 16.2515 15.1939 16.2275 15.5798 16.1698C16.01 16.1056 16.9047 15.6284 17.0913 15.1056C17.2778 14.5827 17.2778 14.1346 17.2218 14.0413Z" fill="#262626"/>
</svg>
