<svg width="286" height="78" viewBox="0 0 286 78" fill="none" xmlns="http://www.w3.org/2000/svg">
<path d="M147.469 51.7422H146.75V77.5669H147.469V51.7422Z" fill="#000100"/>
<path d="M13.2463 53.7363V65.0159C13.2463 65.5278 12.8507 65.9161 12.3291 65.9161H10.9443C10.9443 65.9161 10.8184 65.9868 10.8184 66.0397V75.5188C11.1421 75.5188 11.4658 75.5894 11.8615 75.5894C18.0303 75.5894 23.0302 70.6822 23.0302 64.6276C23.0302 59.0143 18.7497 54.3718 13.2463 53.7363ZM12.9766 70.6292C12.1852 70.6292 11.5917 69.9937 11.5917 69.27C11.5917 68.4933 12.2572 67.9108 12.9766 67.9108C13.7679 67.9108 14.3614 68.5639 14.3614 69.27C14.4333 69.9761 13.7679 70.6292 12.9766 70.6292ZM16.2678 70.6292C15.4765 70.6292 14.883 69.9937 14.883 69.27C14.883 68.4933 15.5304 67.9108 16.2678 67.9108C17.0591 67.9108 17.6527 68.5639 17.6527 69.27C17.6527 69.9761 17.0591 70.6292 16.2678 70.6292ZM19.5591 70.6292C18.7677 70.6292 18.1742 69.9937 18.1742 69.27C18.1742 68.4933 18.8397 67.9108 19.5591 67.9108C20.3504 67.9108 20.9439 68.5639 20.9439 69.27C20.9439 69.9761 20.3504 70.6292 19.5591 70.6292Z" fill="#3AA270"/>
<path d="M11.862 53.6836C5.69318 53.6836 0.693359 58.5908 0.693359 64.6454C0.693359 69.941 4.43423 74.3187 9.50599 75.3425V65.4751C9.50599 65.0161 9.90166 64.6455 10.3513 64.5748H11.7361C11.7361 64.5748 11.862 64.5042 11.862 64.4513V53.6836ZM9.68585 62.7037C8.89451 62.7037 8.301 62.0682 8.301 61.3445C8.301 60.5678 8.96645 59.9853 9.68585 59.9853C10.4772 59.9853 11.0707 60.6384 11.0707 61.3445C11.0707 62.0506 10.4772 62.7037 9.68585 62.7037Z" fill="#3AA270"/>
<path d="M121.516 59.792V63.8166H115.994V59.792H113.225V70.489H115.994V66.1467H121.516V70.489H124.213V59.792H121.516Z" fill="#3AA270"/>
<path d="M76.069 60.9748C75.6194 60.0393 74.7201 59.5273 73.8209 59.5273C72.9216 59.5273 72.0224 60.0393 71.5727 60.9748L67.1484 70.4892H70.044L71.0152 68.2297H76.6625L77.6157 70.4892H80.5113L76.087 60.9748H76.069ZM71.8965 66.0762L73.5691 62.1751C73.641 62.0516 73.695 62.0516 73.7669 62.0516C73.8389 62.0516 73.9647 62.0516 73.9647 62.1751L75.6374 66.0762H71.9145H71.8965Z" fill="#3AA270"/>
<path d="M43.5869 57.832C42.3099 57.832 41.4647 58.5204 40.8891 59.8443L37.3641 67.9113L33.839 59.8443C33.2635 58.5204 32.4182 57.832 31.1413 57.832C29.8643 57.832 28.6953 58.644 28.6953 60.4798V70.4355H31.3931V60.7975L34.9901 68.7939C35.4397 69.9236 36.267 70.612 37.3641 70.612C38.5151 70.612 39.2885 69.9236 39.7381 68.7939L43.3351 60.7975V70.5061H46.0328V60.5504C46.0328 58.7323 44.8099 57.8497 43.5869 57.8497" fill="#3AA270"/>
<path d="M50.8363 68.2298C50.7104 68.2298 50.5845 68.1063 50.5845 67.9827V66.094H57.3828V63.8875H50.5845V62.2459C50.5845 62.1223 50.7104 61.9987 50.8363 61.9987H57.5806V59.7393H49.4874C48.5162 59.7393 47.8867 60.4983 47.8867 61.3103V68.8124C47.8867 69.6244 48.5881 70.3834 49.4874 70.3834H57.5806V68.1239H50.8363V68.2475V68.2298Z" fill="#3AA270"/>
<path d="M62.1294 70.489V62.2986C62.1294 62.175 62.2553 62.0514 62.3812 62.0514H69.1255V59.792H61.0323C60.0611 59.792 59.4316 60.5511 59.4316 61.363V70.4361H62.1294V70.489Z" fill="#3AA270"/>
<path d="M111.445 65.14C111.445 61.4155 109.773 59.668 105.672 59.668H104.701C100.6 59.668 98.9277 61.4331 98.9277 65.14C98.9277 68.8469 100.6 70.6298 104.701 70.6298H105.6C109.773 70.5592 111.445 68.8116 111.445 65.14ZM105.6 68.3527H104.701C102.453 68.3527 101.554 67.3465 101.554 65.14C101.554 62.9335 102.327 61.9274 104.701 61.9274H105.6C107.902 61.9274 108.748 63.0041 108.748 65.14C108.748 67.2759 107.92 68.3527 105.6 68.3527Z" fill="#3AA270"/>
<path d="M91.3377 58.0791H85.9422C81.8956 58.0791 80.2949 60.0914 80.2949 63.5689C80.2949 64.1337 80.3669 64.6456 80.4208 65.0869C80.8704 67.5405 82.3452 69.0586 86.14 69.0586H87.363V70.4354H90.0608V69.0586H91.2118C95.0066 69.0586 96.4814 67.5405 96.931 65.0869C97.003 64.6456 97.0569 64.1337 97.0569 63.5689C96.985 60.1091 95.3304 58.0791 91.3377 58.0791ZM87.2371 66.8345H86.0141C84.1617 66.8345 83.5142 66.1461 83.1186 65.0693C82.9927 64.681 82.9927 64.1161 82.9927 63.5512C82.9927 61.2741 84.0898 60.3385 85.6185 60.3385H87.2911V66.8345H87.2192H87.2371ZM94.1793 65.1399C93.8017 66.2166 93.0822 66.9051 91.2838 66.9051H90.0608V60.3562H91.7334C93.2801 60.3562 94.3592 61.2918 94.3592 63.5689C94.2872 64.2043 94.2873 64.6986 94.1614 65.1399" fill="#3AA270"/>
<mask id="mask0_3209_217198" style="mask-type:luminance" maskUnits="userSpaceOnUse" x="168" y="53" width="118" height="23">
<path d="M285.036 53.6846H168.979V75.6083H285.036V53.6846Z" fill="white"/>
</mask>
<g mask="url(#mask0_3209_217198)">
<path d="M183.349 71.1254L183.331 61.8229L178.673 69.4838H177.036L172.396 62.017V71.1254H168.961V55.6094H171.982L177.917 65.2473L183.745 55.6094H186.748L186.784 71.1254H183.349Z" fill="#D14D42"/>
</g>
<path d="M201.982 59.21L196.497 71.8664C195.94 73.2432 195.256 74.2141 194.429 74.779C193.601 75.3438 192.612 75.6262 191.461 75.6262C190.832 75.6262 190.202 75.5203 189.591 75.3438C188.979 75.1496 188.476 74.8849 188.08 74.5495L189.375 72.0958C189.645 72.3253 189.95 72.5195 190.31 72.643C190.67 72.7666 191.012 72.8372 191.353 72.8372C191.839 72.8372 192.235 72.7313 192.522 72.5018C192.828 72.2724 193.098 71.884 193.332 71.3545L193.368 71.2486L188.098 59.2276H191.731L195.148 67.3122L198.583 59.2276H201.964L201.982 59.21Z" fill="#D14D42"/>
<path d="M216.262 64.4706C216.766 65.1237 217.035 65.9356 217.035 66.9065C217.035 68.2657 216.496 69.3072 215.417 70.0485C214.338 70.7723 212.773 71.143 210.705 71.143H202.521V55.627H210.255C212.179 55.627 213.654 55.9976 214.697 56.7214C215.722 57.4451 216.244 58.4336 216.244 59.6693C216.244 60.4283 216.064 61.099 215.686 61.6815C215.309 62.2641 214.805 62.7407 214.14 63.0761C215.039 63.3585 215.758 63.8174 216.262 64.4882M206.154 58.3277V61.9817H209.787C210.687 61.9817 211.37 61.8228 211.838 61.5227C212.305 61.205 212.539 60.746 212.539 60.1458C212.539 59.5457 212.305 59.0867 211.838 58.7867C211.37 58.4866 210.687 58.3277 209.787 58.3277H206.154ZM212.611 67.9656C213.097 67.6479 213.348 67.1713 213.348 66.5182C213.348 65.2296 212.377 64.5941 210.435 64.5941H206.172V68.4246H210.435C211.406 68.4246 212.125 68.2657 212.611 67.9656Z" fill="#435592"/>
<path d="M228.24 60.3394C229.247 61.222 229.751 62.5459 229.751 64.3288V71.1424H226.46V69.6596C225.794 70.7717 224.553 71.3189 222.755 71.3189C221.82 71.3189 221.01 71.1601 220.327 70.86C219.643 70.5423 219.122 70.1186 218.762 69.5714C218.403 69.0242 218.223 68.4064 218.223 67.7003C218.223 66.5882 218.654 65.7233 219.5 65.0878C220.345 64.4523 221.658 64.1346 223.438 64.1346H226.244C226.244 63.3756 226.01 62.793 225.543 62.3871C225.075 61.9811 224.374 61.7692 223.438 61.7692C222.791 61.7692 222.161 61.8752 221.532 62.0693C220.902 62.2635 220.381 62.5459 219.931 62.8813L218.672 60.463C219.338 60.0041 220.129 59.651 221.064 59.4039C221.982 59.1568 222.935 59.0332 223.924 59.0332C225.812 59.0332 227.251 59.4745 228.258 60.3571M225.255 68.5829C225.722 68.3181 226.046 67.9121 226.244 67.3826V66.1646H223.834C222.395 66.1646 221.658 66.6236 221.658 67.5591C221.658 68.0004 221.838 68.3534 222.179 68.6182C222.539 68.883 223.025 69.0065 223.636 69.0065C224.248 69.0065 224.769 68.8653 225.237 68.6006" fill="#435592"/>
<path d="M242.376 59.7918C243.294 60.3037 244.031 61.0274 244.553 61.9453C245.074 62.8632 245.344 63.94 245.344 65.1757C245.344 66.4113 245.074 67.488 244.553 68.4059C244.031 69.3238 243.294 70.0476 242.376 70.5595C241.459 71.0714 240.416 71.3185 239.301 71.3185C237.628 71.3185 236.351 70.8066 235.488 69.7652V71.142H232.125V54.6904H235.65V60.4803C236.531 59.5094 237.754 59.0328 239.319 59.0328C240.452 59.0328 241.477 59.2976 242.394 59.7918M240.92 67.5763C241.495 66.9761 241.783 66.1818 241.783 65.1757C241.783 64.1695 241.495 63.3751 240.92 62.775C240.344 62.1748 239.589 61.8748 238.69 61.8748C237.79 61.8748 237.053 62.1748 236.459 62.775C235.884 63.3751 235.596 64.1695 235.596 65.1757C235.596 66.1818 235.884 66.9761 236.459 67.5763C237.035 68.1765 237.772 68.4766 238.69 68.4766C239.607 68.4766 240.344 68.1765 240.92 67.5763Z" fill="#435592"/>
<path d="M247.016 56.9855C246.62 56.6148 246.404 56.1558 246.404 55.6086C246.404 55.0614 246.602 54.6025 247.016 54.2318C247.429 53.8611 247.951 53.6846 248.598 53.6846C249.246 53.6846 249.768 53.8611 250.181 54.2141C250.595 54.5671 250.793 55.0084 250.793 55.538C250.793 56.1205 250.595 56.5972 250.181 56.9679C249.768 57.3385 249.246 57.5327 248.598 57.5327C247.951 57.5327 247.429 57.3562 247.016 56.9855ZM246.836 59.2096H250.361V71.1423H246.836V59.2096Z" fill="#435592"/>
<path d="M256.117 54.6738H252.592V71.1254H256.117V54.6738Z" fill="#435592"/>
<path d="M260.722 70.5247C259.715 69.9952 258.905 69.2714 258.348 68.3359C257.772 67.4003 257.484 66.3412 257.484 65.1585C257.484 63.9759 257.772 62.9168 258.348 61.9812C258.923 61.0457 259.715 60.3219 260.722 59.7924C261.747 59.2628 262.88 58.998 264.175 58.998C265.47 58.998 266.603 59.2628 267.61 59.7924C268.617 60.3219 269.408 61.0457 269.984 61.9812C270.559 62.9168 270.847 63.9759 270.847 65.1585C270.847 66.3412 270.559 67.4003 269.984 68.3359C269.408 69.2714 268.617 69.9952 267.61 70.5247C266.603 71.0543 265.452 71.319 264.175 71.319C262.898 71.319 261.747 71.0543 260.722 70.5247ZM266.387 67.5769C266.962 66.9767 267.25 66.1824 267.25 65.1762C267.25 64.1701 266.962 63.3757 266.387 62.7755C265.811 62.1754 265.056 61.8753 264.157 61.8753C263.258 61.8753 262.502 62.1754 261.927 62.7755C261.333 63.3757 261.045 64.1701 261.045 65.1762C261.045 66.1824 261.333 66.9767 261.927 67.5769C262.52 68.177 263.258 68.4771 264.157 68.4771C265.056 68.4771 265.793 68.177 266.387 67.5769Z" fill="#435592"/>
<path d="M283.652 60.3572C284.569 61.2398 285.037 62.5637 285.037 64.3112V71.1425H281.512V64.8408C281.512 63.9052 281.296 63.1815 280.882 62.7225C280.469 62.2636 279.857 62.0165 279.048 62.0165C278.167 62.0165 277.447 62.2812 276.926 62.8284C276.404 63.3757 276.134 64.17 276.134 65.2291V71.1249H272.609V59.1922H275.973V60.5867C276.44 60.0924 277.016 59.7041 277.717 59.4216C278.419 59.1569 279.174 59.0156 280.001 59.0156C281.512 59.0156 282.717 59.4569 283.652 60.3395" fill="#435592"/>
<path d="M49.9547 21.2934C48.5699 23.0233 46.5376 24.1707 44.2894 24.4532C44.2894 24.4532 45.9081 23.8353 47.4548 21.3464C48.9296 18.6986 49.0555 16.7039 50.4583 14.9917C52.8143 12.0968 55.8358 12.7852 55.8358 12.7852C55.4941 11.7084 54.4689 11.02 52.9942 11.0906C52.5266 9.57258 50.4583 9.02537 49.0015 9.76675C47.9044 10.314 46.7534 11.1259 45.4405 11.0906C45.2966 11.0906 45.1527 11.0906 45.0088 11.0906C44.1995 10.9671 43.4442 10.5788 42.8686 10.0139C42.7787 11.2672 43.588 12.4322 44.5592 12.8205C46.2138 13.4913 47.3829 12.6793 47.3829 12.6793C46.3397 15.38 44.4693 17.6924 42.0054 19.2988C39.2537 17.9572 37.4372 15.5213 37.0415 12.1498C38.9299 6.76593 44.5233 3.50036 50.2605 4.45356C55.9797 5.40676 60.1702 10.2963 60.1522 15.9979V16.3862C57.8321 19.6518 53.9834 21.5053 49.9367 21.3288M48.3181 2.24707C40.6025 2.24707 34.3438 8.38992 34.3438 15.9626C34.3438 23.5353 40.6025 29.6781 48.3181 29.6781C56.0336 29.6781 62.2924 23.5353 62.2924 15.9626C62.2924 8.38992 56.0336 2.24707 48.3181 2.24707Z" fill="#F67451"/>
<path d="M90.223 17.0752C90.223 18.1343 89.9533 18.9463 89.3957 19.5111C88.8382 20.076 88.1008 20.3584 87.1836 20.3408C86.3563 20.3408 85.7268 20.0936 85.2592 19.617C84.8096 19.1404 84.5758 18.4167 84.5758 17.4458V12.1855H82.0039V17.7636C82.0039 19.3699 82.4355 20.5702 83.2808 21.3646C84.1261 22.1589 85.2952 22.5649 86.7699 22.5649C87.4354 22.5649 88.0828 22.4413 88.6943 22.2119C89.2698 21.9824 89.7914 21.6293 90.2051 21.188V21.9471C90.2051 23.0591 89.9353 23.8888 89.4137 24.4184C88.8742 24.9479 88.0469 25.2303 86.9138 25.2303C86.3023 25.2303 85.6908 25.1244 85.1333 24.8949C84.5038 24.7008 83.9283 24.3654 83.4067 23.9594L82.2377 25.8658C82.9032 26.413 83.6765 26.8014 84.5038 27.0132C85.3131 27.278 86.1764 27.4192 87.0397 27.4192C90.8705 27.4192 92.7769 25.5127 92.7769 21.6823V12.2032H90.1871V17.0928L90.223 17.0752Z" fill="#F67451"/>
<path d="M107.074 12.2031L102.938 18.9991L98.9989 12.2031H96.2832V23.059H98.6572V15.8394L102.326 21.9293H103.441L107.182 15.8571V23.059H109.52L109.502 12.2031H107.074Z" fill="#F67451"/>
<path d="M120.402 20.0931C119.09 21.3464 117.003 21.3464 115.69 20.0931C115.079 19.4753 114.773 18.6457 114.773 17.6219C114.773 16.5981 115.079 15.7861 115.69 15.1682C117.003 13.9149 119.09 13.9149 120.402 15.1682C121.032 15.7861 121.338 16.6157 121.338 17.6219C121.338 18.628 121.032 19.4577 120.402 20.0931ZM123.19 14.7623C122.687 13.9326 121.967 13.2442 121.086 12.7852C119.179 11.832 116.931 11.832 115.007 12.7852C114.126 13.2442 113.406 13.915 112.903 14.7623C112.399 15.6272 112.129 16.6334 112.147 17.6219C112.147 18.628 112.399 19.6342 112.903 20.4991C113.406 21.3464 114.126 22.0349 115.007 22.4762C116.913 23.4294 119.179 23.4294 121.086 22.4762C121.967 22.0172 122.687 21.3288 123.19 20.4991C123.694 19.6166 123.963 18.628 123.945 17.6219C123.945 16.6157 123.694 15.6272 123.19 14.7623Z" fill="#F67451"/>
<path d="M74.7567 15.663L79.2349 9.36133H76.0875L73.0661 13.5801L70.0266 9.36133H66.9152L71.4474 15.7689L66.5195 22.6179H69.6309L73.0661 17.8872L76.5012 22.6179H78.1378V23.0592V25.8658H80.4399V20.8351H78.4256L74.7567 15.663Z" fill="#F67451"/>
<path d="M147.469 3.02344H146.75V28.8306H147.469V3.02344Z" fill="#000100"/>
<path d="M218.277 10.5439L217.666 17.1987C217.558 18.0283 217.414 18.5226 217.072 18.9286C216.802 19.264 216.317 19.4405 215.813 19.4405H215.436V21.5764H216.011C216.892 21.5764 217.648 21.4352 218.223 21.1351C218.817 20.835 219.266 20.3937 219.572 19.7759C219.878 19.1581 220.076 18.3461 220.184 17.3399L220.579 12.9093H223.349V21.5234H226.029V10.5616H218.277V10.5439Z" fill="#081214"/>
<path d="M228.816 10.5439V21.5058H230.525L236.802 14.6569V21.5058H239.392V10.5439H237.701L231.424 17.4635V10.5439H228.816Z" fill="#081214"/>
<path d="M256.585 16.0344C256.585 12.2392 253.959 10.5269 250.272 10.2269V7.82617H247.754V10.2269C244.049 10.5269 241.441 12.2392 241.441 16.0344C241.441 19.8295 244.067 21.5417 247.754 21.8418V24.772H250.272V21.8418C253.977 21.5417 256.585 19.8295 256.585 16.0344ZM243.923 16.0344C243.923 13.8102 245.326 12.7511 247.844 12.504V19.6353C245.308 19.3705 243.923 18.2585 243.923 16.0344ZM250.182 19.6353V12.504C252.718 12.7511 254.103 13.7926 254.103 16.0344C254.103 18.2761 252.718 19.3705 250.182 19.6353Z" fill="#081214"/>
<path d="M211.371 10.4549V11.6023C210.31 10.7197 209.141 10.2607 207.72 10.2607C204.321 10.2607 201.803 12.6791 201.803 16.0682C201.803 19.4574 204.213 21.8933 207.72 21.8933C209.105 21.8933 210.274 21.3991 211.371 20.5342V21.6286H213.961V10.4549H211.371ZM207.936 19.5986C205.759 19.5986 204.321 18.0276 204.321 16.0859C204.321 14.1442 205.723 12.5555 207.936 12.5555C210.148 12.5555 211.479 14.1265 211.479 16.0859C211.479 18.0453 210.04 19.5986 207.936 19.5986Z" fill="#081214"/>
<path d="M187.468 8.46094H183.188L177.486 21.9823H181.137L185.328 11.5324L189.5 21.9823H193.169L187.468 8.46094Z" fill="#36B36E"/>
<path d="M194.734 25.3891C193.655 26.1482 192.45 26.7836 191.137 27.2955C184.213 29.9963 176.516 27.172 173.836 20.7996C171.156 14.4273 174.519 6.88993 181.443 4.20684C182.828 3.65963 184.249 3.35953 185.652 3.25362L184.303 0.0410156C182.774 0.182231 181.246 0.552912 179.753 1.13543C171.246 4.45399 167.199 13.9154 170.616 22.0706C174.034 30.2258 183.638 33.9856 192.144 30.667C193.565 30.1198 194.914 29.4314 196.101 28.6194L194.752 25.4068L194.734 25.3891Z" fill="#36B36E"/>
</svg>
