<svg width="126" height="15" viewBox="0 0 126 15" fill="none" xmlns="http://www.w3.org/2000/svg">
<path d="M5.67 12.225C5 12.225 4.375 12.105 3.795 11.865C3.225 11.625 2.725 11.275 2.295 10.815C1.875 10.355 1.54 9.79 1.29 9.12C1.05 8.44 0.93 7.665 0.93 6.795C0.93 5.925 1.06 5.155 1.32 4.485C1.59 3.805 1.945 3.235 2.385 2.775C2.825 2.315 3.335 1.97 3.915 1.74C4.495 1.5 5.1 1.38 5.73 1.38C6.12 1.38 6.475 1.405 6.795 1.455C7.115 1.505 7.395 1.57 7.635 1.65C7.875 1.72 8.08 1.795 8.25 1.875C8.42 1.945 8.55 2.01 8.64 2.07L8.31 2.955C8.06 2.805 7.74 2.66 7.35 2.52C6.97 2.37 6.495 2.295 5.925 2.295C5.275 2.295 4.705 2.405 4.215 2.625C3.735 2.845 3.33 3.155 3 3.555C2.67 3.955 2.42 4.43 2.25 4.98C2.09 5.53 2.01 6.14 2.01 6.81C2.01 7.5 2.09 8.125 2.25 8.685C2.42 9.235 2.665 9.705 2.985 10.095C3.305 10.485 3.695 10.785 4.155 10.995C4.625 11.205 5.16 11.31 5.76 11.31C6.42 11.31 6.97 11.25 7.41 11.13C7.86 11 8.2 10.87 8.43 10.74L8.715 11.61C8.645 11.66 8.525 11.72 8.355 11.79C8.185 11.85 7.97 11.915 7.71 11.985C7.45 12.055 7.15 12.11 6.81 12.15C6.47 12.2 6.09 12.225 5.67 12.225ZM13.0706 4.095C13.3906 4.095 13.6906 4.12 13.9706 4.17C14.2606 4.22 14.4606 4.27 14.5706 4.32L14.3756 5.16C14.2956 5.12 14.1306 5.08 13.8806 5.04C13.6406 4.99 13.3206 4.965 12.9206 4.965C12.5006 4.965 12.1606 4.995 11.9006 5.055C11.6506 5.115 11.4856 5.165 11.4056 5.205V12H10.4306V4.605C10.6806 4.495 11.0256 4.385 11.4656 4.275C11.9056 4.155 12.4406 4.095 13.0706 4.095ZM15.576 8.115C15.576 7.435 15.671 6.845 15.861 6.345C16.061 5.835 16.316 5.41 16.626 5.07C16.946 4.73 17.306 4.48 17.706 4.32C18.116 4.15 18.536 4.065 18.966 4.065C19.916 4.065 20.671 4.375 21.231 4.995C21.801 5.615 22.086 6.57 22.086 7.86C22.086 7.94 22.081 8.02 22.071 8.1C22.071 8.18 22.066 8.255 22.056 8.325H16.611C16.641 9.275 16.876 10.005 17.316 10.515C17.756 11.025 18.456 11.28 19.416 11.28C19.946 11.28 20.366 11.23 20.676 11.13C20.986 11.03 21.211 10.945 21.351 10.875L21.531 11.715C21.391 11.795 21.126 11.89 20.736 12C20.356 12.11 19.906 12.165 19.386 12.165C18.706 12.165 18.126 12.065 17.646 11.865C17.166 11.665 16.771 11.385 16.461 11.025C16.151 10.665 15.926 10.24 15.786 9.75C15.646 9.25 15.576 8.705 15.576 8.115ZM21.081 7.5C21.061 6.69 20.871 6.06 20.511 5.61C20.151 5.16 19.641 4.935 18.981 4.935C18.631 4.935 18.316 5.005 18.036 5.145C17.766 5.285 17.526 5.475 17.316 5.715C17.116 5.945 16.956 6.215 16.836 6.525C16.726 6.835 16.661 7.16 16.641 7.5H21.081ZM26.7038 11.295C27.0838 11.295 27.4138 11.285 27.6938 11.265C27.9838 11.235 28.2288 11.2 28.4288 11.16V8.43C28.3188 8.38 28.1438 8.33 27.9038 8.28C27.6638 8.22 27.3338 8.19 26.9138 8.19C26.6738 8.19 26.4238 8.21 26.1638 8.25C25.9038 8.28 25.6638 8.355 25.4438 8.475C25.2238 8.585 25.0438 8.74 24.9038 8.94C24.7638 9.14 24.6938 9.405 24.6938 9.735C24.6938 10.025 24.7388 10.27 24.8288 10.47C24.9288 10.67 25.0638 10.83 25.2338 10.95C25.4138 11.07 25.6238 11.16 25.8638 11.22C26.1138 11.27 26.3938 11.295 26.7038 11.295ZM26.6138 4.065C27.1238 4.065 27.5538 4.14 27.9038 4.29C28.2638 4.43 28.5538 4.63 28.7738 4.89C28.9938 5.14 29.1538 5.44 29.2538 5.79C29.3538 6.14 29.4038 6.52 29.4038 6.93V11.82C29.3038 11.85 29.1588 11.885 28.9688 11.925C28.7788 11.955 28.5588 11.99 28.3088 12.03C28.0588 12.07 27.7788 12.1 27.4688 12.12C27.1688 12.15 26.8588 12.165 26.5388 12.165C26.1288 12.165 25.7488 12.12 25.3988 12.03C25.0588 11.94 24.7588 11.8 24.4988 11.61C24.2488 11.41 24.0488 11.16 23.8988 10.86C23.7588 10.55 23.6888 10.175 23.6888 9.735C23.6888 9.315 23.7688 8.955 23.9288 8.655C24.0888 8.355 24.3138 8.11 24.6038 7.92C24.8938 7.72 25.2388 7.575 25.6388 7.485C26.0388 7.395 26.4738 7.35 26.9438 7.35C27.0838 7.35 27.2288 7.36 27.3787 7.38C27.5388 7.39 27.6888 7.41 27.8288 7.44C27.9788 7.46 28.1038 7.485 28.2038 7.515C28.3138 7.535 28.3888 7.555 28.4288 7.575V7.095C28.4288 6.825 28.4088 6.565 28.3688 6.315C28.3288 6.055 28.2388 5.825 28.0988 5.625C27.9688 5.415 27.7788 5.25 27.5288 5.13C27.2888 5 26.9688 4.935 26.5688 4.935C25.9988 4.935 25.5738 4.975 25.2938 5.055C25.0138 5.135 24.8088 5.2 24.6788 5.25L24.5438 4.395C24.7138 4.315 24.9738 4.24 25.3238 4.17C25.6838 4.1 26.1138 4.065 26.6138 4.065ZM32.8056 4.245H35.8956V5.07H32.8056V9.195C32.8056 9.635 32.8406 9.995 32.9106 10.275C32.9906 10.545 33.1006 10.755 33.2406 10.905C33.3806 11.055 33.5506 11.155 33.7506 11.205C33.9506 11.255 34.1706 11.28 34.4106 11.28C34.8206 11.28 35.1506 11.235 35.4006 11.145C35.6506 11.045 35.8456 10.955 35.9856 10.875L36.2256 11.685C36.0856 11.775 35.8406 11.88 35.4906 12C35.1406 12.11 34.7606 12.165 34.3506 12.165C33.8706 12.165 33.4656 12.105 33.1356 11.985C32.8156 11.855 32.5556 11.665 32.3556 11.415C32.1656 11.155 32.0306 10.835 31.9506 10.455C31.8706 10.075 31.8306 9.625 31.8306 9.105V1.965L32.8056 1.785V4.245ZM37.2264 8.115C37.2264 7.435 37.3214 6.845 37.5114 6.345C37.7114 5.835 37.9664 5.41 38.2764 5.07C38.5964 4.73 38.9564 4.48 39.3564 4.32C39.7664 4.15 40.1864 4.065 40.6164 4.065C41.5664 4.065 42.3214 4.375 42.8814 4.995C43.4514 5.615 43.7364 6.57 43.7364 7.86C43.7364 7.94 43.7314 8.02 43.7214 8.1C43.7214 8.18 43.7164 8.255 43.7064 8.325H38.2614C38.2914 9.275 38.5264 10.005 38.9664 10.515C39.4064 11.025 40.1064 11.28 41.0664 11.28C41.5964 11.28 42.0164 11.23 42.3264 11.13C42.6364 11.03 42.8614 10.945 43.0014 10.875L43.1814 11.715C43.0414 11.795 42.7764 11.89 42.3864 12C42.0064 12.11 41.5564 12.165 41.0364 12.165C40.3564 12.165 39.7764 12.065 39.2964 11.865C38.8164 11.665 38.4214 11.385 38.1114 11.025C37.8014 10.665 37.5764 10.24 37.4364 9.75C37.2964 9.25 37.2264 8.705 37.2264 8.115ZM42.7314 7.5C42.7114 6.69 42.5214 6.06 42.1614 5.61C41.8014 5.16 41.2914 4.935 40.6314 4.935C40.2814 4.935 39.9664 5.005 39.6864 5.145C39.4164 5.285 39.1764 5.475 38.9664 5.715C38.7664 5.945 38.6064 6.215 38.4864 6.525C38.3764 6.835 38.3114 7.16 38.2914 7.5H42.7314ZM52.0741 11.76C51.7841 11.86 51.4141 11.955 50.9641 12.045C50.5141 12.135 49.9441 12.18 49.2541 12.18C48.6841 12.18 48.1641 12.09 47.6941 11.91C47.2341 11.72 46.8341 11.45 46.4941 11.1C46.1641 10.75 45.9041 10.325 45.7141 9.825C45.5341 9.325 45.4441 8.76 45.4441 8.13C45.4441 7.54 45.5191 7 45.6691 6.51C45.8291 6.01 46.0591 5.58 46.3591 5.22C46.6591 4.86 47.0241 4.58 47.4541 4.38C47.8941 4.18 48.3941 4.08 48.9541 4.08C49.4641 4.08 49.9041 4.155 50.2741 4.305C50.6541 4.445 50.9291 4.58 51.0991 4.71V0.539999L52.0741 0.36V11.76ZM51.0991 5.655C51.0091 5.585 50.8941 5.51 50.7541 5.43C50.6241 5.35 50.4691 5.275 50.2891 5.205C50.1091 5.135 49.9141 5.08 49.7041 5.04C49.4941 4.99 49.2741 4.965 49.0441 4.965C48.5641 4.965 48.1591 5.05 47.8291 5.22C47.5091 5.39 47.2491 5.62 47.0491 5.91C46.8491 6.19 46.7041 6.525 46.6141 6.915C46.5241 7.295 46.4791 7.7 46.4791 8.13C46.4791 9.15 46.7341 9.935 47.2441 10.485C47.7541 11.025 48.4291 11.295 49.2691 11.295C49.7491 11.295 50.1341 11.275 50.4241 11.235C50.7241 11.185 50.9491 11.135 51.0991 11.085V5.655ZM59.0423 4.71C59.2123 4.58 59.4823 4.445 59.8523 4.305C60.2323 4.155 60.6773 4.08 61.1873 4.08C61.7473 4.08 62.2423 4.18 62.6723 4.38C63.1123 4.58 63.4823 4.86 63.7823 5.22C64.0823 5.58 64.3073 6.01 64.4573 6.51C64.6173 7 64.6973 7.54 64.6973 8.13C64.6973 8.76 64.6023 9.325 64.4123 9.825C64.2323 10.325 63.9723 10.75 63.6323 11.1C63.3023 11.45 62.9023 11.72 62.4323 11.91C61.9723 12.09 61.4573 12.18 60.8873 12.18C60.1973 12.18 59.6273 12.135 59.1773 12.045C58.7273 11.955 58.3573 11.86 58.0673 11.76V0.539999L59.0423 0.36V4.71ZM59.0423 11.085C59.1923 11.135 59.4123 11.185 59.7023 11.235C60.0023 11.275 60.3923 11.295 60.8723 11.295C61.7123 11.295 62.3873 11.025 62.8973 10.485C63.4073 9.935 63.6623 9.15 63.6623 8.13C63.6623 7.7 63.6173 7.295 63.5273 6.915C63.4373 6.525 63.2923 6.19 63.0923 5.91C62.8923 5.62 62.6273 5.39 62.2973 5.22C61.9773 5.05 61.5773 4.965 61.0973 4.965C60.8673 4.965 60.6473 4.99 60.4373 5.04C60.2273 5.08 60.0323 5.135 59.8523 5.205C59.6723 5.275 59.5123 5.35 59.3723 5.43C59.2423 5.51 59.1323 5.585 59.0423 5.655V11.085ZM68.9275 12.165C68.5975 11.555 68.2775 10.92 67.9675 10.26C67.6675 9.6 67.3825 8.935 67.1125 8.265C66.8525 7.585 66.6125 6.91 66.3925 6.24C66.1725 5.56 65.9825 4.895 65.8225 4.245H66.8575C66.9675 4.725 67.1075 5.245 67.2775 5.805C67.4475 6.355 67.6375 6.925 67.8475 7.515C68.0675 8.105 68.3075 8.71 68.5675 9.33C68.8275 9.95 69.1075 10.56 69.4075 11.16C69.6275 10.54 69.8225 9.955 69.9925 9.405C70.1625 8.855 70.3175 8.31 70.4575 7.77C70.6075 7.22 70.7475 6.66 70.8775 6.09C71.0175 5.52 71.1625 4.905 71.3125 4.245H72.2875C71.9675 5.695 71.6025 7.105 71.1925 8.475C70.7825 9.845 70.3375 11.1 69.8575 12.24C69.6675 12.69 69.4725 13.075 69.2725 13.395C69.0725 13.725 68.8475 13.995 68.5975 14.205C68.3575 14.415 68.0725 14.57 67.7425 14.67C67.4225 14.77 67.0425 14.82 66.6025 14.82C66.3525 14.82 66.1225 14.79 65.9125 14.73C65.7125 14.67 65.5875 14.625 65.5375 14.595L65.7325 13.785C65.7725 13.815 65.8825 13.855 66.0625 13.905C66.2525 13.965 66.4475 13.995 66.6475 13.995C66.9275 13.995 67.1775 13.965 67.3975 13.905C67.6275 13.845 67.8325 13.74 68.0125 13.59C68.1925 13.45 68.3525 13.265 68.4925 13.035C68.6425 12.805 68.7875 12.515 68.9275 12.165ZM99.8888 14.775H97.5937L102.634 0.254999H104.899L99.8888 14.775ZM109.182 12.135C108.612 12.135 108.042 12.115 107.472 12.075C106.912 12.045 106.327 11.965 105.717 11.835V1.755C106.197 1.665 106.722 1.6 107.292 1.56C107.862 1.51 108.392 1.485 108.882 1.485C109.542 1.485 110.147 1.535 110.697 1.635C111.257 1.725 111.737 1.885 112.137 2.115C112.537 2.345 112.847 2.65 113.067 3.03C113.297 3.4 113.412 3.86 113.412 4.41C113.412 5.24 113.012 5.895 112.212 6.375C112.872 6.625 113.322 6.965 113.562 7.395C113.802 7.825 113.922 8.31 113.922 8.85C113.922 9.94 113.522 10.76 112.722 11.31C111.932 11.86 110.752 12.135 109.182 12.135ZM107.997 7.47V10.155C108.167 10.175 108.352 10.19 108.552 10.2C108.752 10.21 108.972 10.215 109.212 10.215C109.912 10.215 110.477 10.115 110.907 9.915C111.337 9.715 111.552 9.345 111.552 8.805C111.552 8.325 111.372 7.985 111.012 7.785C110.652 7.575 110.137 7.47 109.467 7.47H107.997ZM107.997 5.685H109.137C109.857 5.685 110.372 5.595 110.682 5.415C110.992 5.225 111.147 4.925 111.147 4.515C111.147 4.095 110.987 3.8 110.667 3.63C110.347 3.46 109.877 3.375 109.257 3.375C109.057 3.375 108.842 3.38 108.612 3.39C108.382 3.39 108.177 3.4 107.997 3.42V5.685ZM117.76 6.795C117.76 7.305 117.82 7.765 117.94 8.175C118.07 8.585 118.25 8.94 118.48 9.24C118.72 9.53 119.01 9.755 119.35 9.915C119.69 10.075 120.08 10.155 120.52 10.155C120.95 10.155 121.335 10.075 121.675 9.915C122.025 9.755 122.315 9.53 122.545 9.24C122.785 8.94 122.965 8.585 123.085 8.175C123.215 7.765 123.28 7.305 123.28 6.795C123.28 6.285 123.215 5.825 123.085 5.415C122.965 4.995 122.785 4.64 122.545 4.35C122.315 4.05 122.025 3.82 121.675 3.66C121.335 3.5 120.95 3.42 120.52 3.42C120.08 3.42 119.69 3.505 119.35 3.675C119.01 3.835 118.72 4.065 118.48 4.365C118.25 4.655 118.07 5.01 117.94 5.43C117.82 5.84 117.76 6.295 117.76 6.795ZM125.695 6.795C125.695 7.685 125.56 8.47 125.29 9.15C125.03 9.82 124.67 10.385 124.21 10.845C123.75 11.295 123.2 11.635 122.56 11.865C121.93 12.095 121.25 12.21 120.52 12.21C119.81 12.21 119.14 12.095 118.51 11.865C117.88 11.635 117.33 11.295 116.86 10.845C116.39 10.385 116.02 9.82 115.75 9.15C115.48 8.47 115.345 7.685 115.345 6.795C115.345 5.905 115.485 5.125 115.765 4.455C116.045 3.775 116.42 3.205 116.89 2.745C117.37 2.285 117.92 1.94 118.54 1.71C119.17 1.48 119.83 1.365 120.52 1.365C121.23 1.365 121.9 1.48 122.53 1.71C123.16 1.94 123.71 2.285 124.18 2.745C124.65 3.205 125.02 3.775 125.29 4.455C125.56 5.125 125.695 5.905 125.695 6.795Z" fill="#1A1A1A"/>
<path d="M80.705 12.135C80.135 12.135 79.565 12.115 78.995 12.075C78.435 12.045 77.85 11.965 77.24 11.835V1.755C77.72 1.665 78.245 1.6 78.815 1.56C79.385 1.51 79.915 1.485 80.405 1.485C81.065 1.485 81.67 1.535 82.22 1.635C82.78 1.725 83.26 1.885 83.66 2.115C84.06 2.345 84.37 2.65 84.59 3.03C84.82 3.4 84.935 3.86 84.935 4.41C84.935 5.24 84.535 5.895 83.735 6.375C84.395 6.625 84.845 6.965 85.085 7.395C85.325 7.825 85.445 8.31 85.445 8.85C85.445 9.94 85.045 10.76 84.245 11.31C83.455 11.86 82.275 12.135 80.705 12.135ZM79.52 7.47V10.155C79.69 10.175 79.875 10.19 80.075 10.2C80.275 10.21 80.495 10.215 80.735 10.215C81.435 10.215 82 10.115 82.43 9.915C82.86 9.715 83.075 9.345 83.075 8.805C83.075 8.325 82.895 7.985 82.535 7.785C82.175 7.575 81.66 7.47 80.99 7.47H79.52ZM79.52 5.685H80.66C81.38 5.685 81.895 5.595 82.205 5.415C82.515 5.225 82.67 4.925 82.67 4.515C82.67 4.095 82.51 3.8 82.19 3.63C81.87 3.46 81.4 3.375 80.78 3.375C80.58 3.375 80.365 3.38 80.135 3.39C79.905 3.39 79.7 3.4 79.52 3.42V5.685ZM89.2832 6.795C89.2832 7.305 89.3432 7.765 89.4632 8.175C89.5932 8.585 89.7732 8.94 90.0032 9.24C90.2432 9.53 90.5332 9.755 90.8732 9.915C91.2132 10.075 91.6032 10.155 92.0432 10.155C92.4732 10.155 92.8582 10.075 93.1982 9.915C93.5482 9.755 93.8382 9.53 94.0682 9.24C94.3082 8.94 94.4882 8.585 94.6082 8.175C94.7382 7.765 94.8032 7.305 94.8032 6.795C94.8032 6.285 94.7382 5.825 94.6082 5.415C94.4882 4.995 94.3082 4.64 94.0682 4.35C93.8382 4.05 93.5482 3.82 93.1982 3.66C92.8582 3.5 92.4732 3.42 92.0432 3.42C91.6032 3.42 91.2132 3.505 90.8732 3.675C90.5332 3.835 90.2432 4.065 90.0032 4.365C89.7732 4.655 89.5932 5.01 89.4632 5.43C89.3432 5.84 89.2832 6.295 89.2832 6.795ZM97.2182 6.795C97.2182 7.685 97.0832 8.47 96.8132 9.15C96.5532 9.82 96.1932 10.385 95.7332 10.845C95.2732 11.295 94.7232 11.635 94.0832 11.865C93.4532 12.095 92.7732 12.21 92.0432 12.21C91.3332 12.21 90.6632 12.095 90.0332 11.865C89.4032 11.635 88.8532 11.295 88.3832 10.845C87.9132 10.385 87.5432 9.82 87.2732 9.15C87.0032 8.47 86.8682 7.685 86.8682 6.795C86.8682 5.905 87.0082 5.125 87.2882 4.455C87.5682 3.775 87.9432 3.205 88.4132 2.745C88.8932 2.285 89.4432 1.94 90.0632 1.71C90.6932 1.48 91.3532 1.365 92.0432 1.365C92.7532 1.365 93.4232 1.48 94.0532 1.71C94.6832 1.94 95.2332 2.285 95.7032 2.745C96.1732 3.205 96.5432 3.775 96.8132 4.455C97.0832 5.125 97.2182 5.905 97.2182 6.795Z" fill="#D82525"/>
</svg>
