<svg id="Слой_1" data-name="Слой 1" xmlns="http://www.w3.org/2000/svg" viewBox="0 0 224.19 74.05"><defs><style>.cls-1{fill:#262626;}</style></defs><g id="Parfum_Cosmetics_копия_Изображение" data-name="Parfum Cosmetics копия Изображение"><path class="cls-1" d="M212.27,15.51A57.73,57.73,0,0,0,214.68,6l3.91-.38a47.31,47.31,0,0,1-3.76,9.73Z" transform="translate(0 -5.61)"/><path class="cls-1" d="M31,43.71,27.18,54.35H0v-.7H.83A4.2,4.2,0,0,0,5,49.52V13.19A4.2,4.2,0,0,0,.83,9.06H0V8.41H14.34v.65h-.83A4.21,4.21,0,0,0,9.3,13.19V52.35h9.41c7,0,9.61-3.6,11.64-8.59Z" transform="translate(0 -5.61)"/><path class="cls-1" d="M67.49,50.5A5.19,5.19,0,0,0,72,53.79h.44v.56H60.78v-.52h.46c1.34,0,2.73-1.18,2-3.28L59.87,41.6H45.78l-3.5,8.93c-.74,2.07.65,3.25,2,3.25h.46v.57H34.22v-.52h.47a5.2,5.2,0,0,0,4.56-3.29l11.83-28.1S53,18.2,53,17.05h.49ZM59.3,40.05,53,23.27,46.39,40.05Z" transform="translate(0 -5.61)"/><path class="cls-1" d="M136.74,35.17l-.8,10.29c-3.46,5.64-9.32,9.76-18.43,9.76C103.8,55.16,94.1,45.78,94.1,31.29c0-14.23,9.37-23.8,23.8-23.8a27.94,27.94,0,0,1,15.51,4.43l1.32,9.26h-.55c-2-7.66-8.41-11.72-16.29-11.73C106.36,9.45,99,18.17,99,31.22s7.48,21.77,18.5,22c9.31,0,17.19-4.67,18.68-18.09Z" transform="translate(0 -5.61)"/><path class="cls-1" d="M155.54,54.35H143.89v-.53h.68A3.41,3.41,0,0,0,148,50.47V20.9a3.42,3.42,0,0,0-3.41-3.32h-.68v-.53h11.65v.53h-.67a3.42,3.42,0,0,0-3.42,3.31V50.43a3.41,3.41,0,0,0,3.42,3.34h.67Z" transform="translate(0 -5.61)"/><path class="cls-1" d="M185.89,18a22.37,22.37,0,0,0,6.24-.9v6.47h-.53v-.9a3.1,3.1,0,0,0-2.95-3.09h-9.82v31a3.3,3.3,0,0,0,3.32,3.21h.65v.56H171.47v-.51h.66a3.33,3.33,0,0,0,3.31-3.17V19.55h-9.81a3.08,3.08,0,0,0-2.95,3.08v.91h-.56V17.05a22.38,22.38,0,0,0,6.24.91Z" transform="translate(0 -5.61)"/><path class="cls-1" d="M221.15,54.35H199.53v-.52h.66a3.35,3.35,0,0,0,3.35-3.28V21.29a3.35,3.35,0,0,0-3.33-3h-.66v-.52h15.24a22.24,22.24,0,0,0,6.22-.91v6.56h-.53v-.91a3.1,3.1,0,0,0-2.92-3.1H206.92V35.51h8.82a2.57,2.57,0,0,0,2.52-2.57v-.77h.56v8.26h-.51v-.78a2.57,2.57,0,0,0-2.51-2.58h-8.88V52.71h7.49c5.53,0,7.64-2.86,9.26-6.84h.52Z" transform="translate(0 -5.61)"/><path class="cls-1" d="M41.06,71a2.25,2.25,0,0,1,2.48,2,2.17,2.17,0,0,1,0,.36,2.38,2.38,0,0,1-2.44,2.33A2.46,2.46,0,0,1,40,75.33v-.08s2,.43,2.55-1.3a3,3,0,0,0,.08-.73A1.64,1.64,0,0,0,41,71.36H39.61v7.21a.77.77,0,0,0,.77.77h.16v.11H37.88v-.11H38a.77.77,0,0,0,.77-.77v-6.8a.76.76,0,0,0-.77-.7h-.15V71Z" transform="translate(0 -5.61)"/><path class="cls-1" d="M51.85,78.57a1.23,1.23,0,0,0,1.07.77H53v.11h-2.7v-.11h.1a.54.54,0,0,0,.52-.53.48.48,0,0,0-.06-.24l-.77-2.07H46.87L46,78.57a.52.52,0,0,0,.21.7.58.58,0,0,0,.26.06h.1v.11H44.12v-.11h.12a1.21,1.21,0,0,0,1.09-.76L48.07,72a6.34,6.34,0,0,0,.46-1.26h.11Zm-1.91-2.43-1.41-3.9L47,76.13Z" transform="translate(0 -5.61)"/><path class="cls-1" d="M57.89,71a2.16,2.16,0,0,1,2.36,1.92,2.28,2.28,0,0,1,0,.37,2.23,2.23,0,0,1-2.06,2.3,3.12,3.12,0,0,1,.83.83s1,1.5,1.51,2a2.22,2.22,0,0,0,1.66.92v.12h-.66a2.65,2.65,0,0,1-2.12-1.06c-.14-.17-1.51-2.16-1.6-2.28-.31-.4-.67-.83-1.11-.83v-.11h.64a1.81,1.81,0,0,0,1.89-1.27,2.52,2.52,0,0,0,.08-.73A1.64,1.64,0,0,0,57.8,71.3c-.61,0-1.35,0-1.51,0v7.27a.79.79,0,0,0,.78.77h.15v.11H54.57v-.11h.15a.85.85,0,0,0,.78-.77V71.83a.78.78,0,0,0-.78-.76h-.16V71Z" transform="translate(0 -5.61)"/><path class="cls-1" d="M68.45,71.1v1h-.12v-.17a.6.6,0,0,0-.58-.6H65.13v3.76h2.05a.61.61,0,0,0,.59-.6v-.18h.12v1.91h-.1v-.14a.6.6,0,0,0-.57-.6H65.13v3.09a.79.79,0,0,0,.78.77h.15v.11H63.47v-.11h.15a.77.77,0,0,0,.78-.77h0v-6.8a.76.76,0,0,0-.77-.7h-.16V71H67a5,5,0,0,0,1.43-.22Z" transform="translate(0 -5.61)"/><path class="cls-1" d="M79.15,71v.15H79a.62.62,0,0,0-.63.58v4.8a3,3,0,0,1-2.9,3.18H75a3.08,3.08,0,0,1-3.31-2.83c0-.1,0-.21,0-.32V71.67a.61.61,0,0,0-.63-.6h-.2V71h2.49v.15h-.19a.62.62,0,0,0-.64.59h0v4.63c0,1.77,1,3,2.57,3a2.61,2.61,0,0,0,2.71-2.5V71.66a.61.61,0,0,0-.64-.58H77V71Z" transform="translate(0 -5.61)"/><path class="cls-1" d="M90.53,78.57a.82.82,0,0,0,.88.77h.2v.11H89v-.11h.19a.51.51,0,0,0,.47-.52l-.56-6.11-2.55,5.67a6.77,6.77,0,0,0-.41,1.25H86L82.9,72.89l-.54,5.92a.51.51,0,0,0,.47.52H83v.11H80.67v-.11h.24a.84.84,0,0,0,.83-.76l.91-7.78h.11l3.38,7.32,3.32-7.32h.11Z" transform="translate(0 -5.61)"/><path class="cls-1" d="M104.36,74.9c-.35,0-.5.22-.44.55a3.87,3.87,0,0,1-.36,2.65,4.15,4.15,0,0,0,2.13,1.23v.11a3.7,3.7,0,0,1-2.61-.72,3.07,3.07,0,0,1-2.24.83c-2.38,0-3.72-1-3.72-2.84a2.42,2.42,0,0,1,1.47-2.25,2.87,2.87,0,0,1-.46-1.61,2.18,2.18,0,0,1,2.44-2.09,2.77,2.77,0,0,1,2.05.83L102.41,73h-.12a1.66,1.66,0,0,0-1.43-1.86,1.42,1.42,0,0,0-.29,0A1.61,1.61,0,0,0,99,72.7v.11c0,1,.68,1.79,1.93,2.91.51.45,1.18,1.08,2.2,1.93a2.76,2.76,0,0,0,0-2.25.83.83,0,0,0-.78-.55h-.2v-.12h2.43v.12Zm-1.7,3.48c-1-.83-1.66-1.43-2.33-2a11.65,11.65,0,0,1-1.54-1.6,2.52,2.52,0,0,0-.78,2c0,1.46,1,2.49,2.83,2.49A2.35,2.35,0,0,0,102.66,78.38Z" transform="translate(0 -5.61)"/><path class="cls-1" d="M118.19,75.9,118,77.81a3.78,3.78,0,0,1-3.42,1.81,4.42,4.42,0,0,1,.08-8.83,5.22,5.22,0,0,1,2.87.83l.24,1.71h-.1a2.91,2.91,0,0,0-3-2.17c-2.13,0-3.5,1.66-3.5,4s1.39,4,3.42,4.08c1.73,0,3.19-.83,3.47-3.32Z" transform="translate(0 -5.61)"/><path class="cls-1" d="M129.33,75.2A4.36,4.36,0,1,1,125,70.78a4.15,4.15,0,0,1,4.36,3.93A4,4,0,0,1,129.33,75.2Zm-.93,0c0-2.43-1.37-4.06-3.43-4.06s-3.39,1.62-3.39,4.06,1.37,4,3.43,4S128.4,77.63,128.4,75.2Z" transform="translate(0 -5.61)"/><path class="cls-1" d="M135.35,75.87a1.91,1.91,0,0,1,.62,1.47,2.15,2.15,0,0,1-2,2.28h-.28a3.18,3.18,0,0,1-2.05-.67,3.75,3.75,0,0,1,.14-1.66h.1a1.67,1.67,0,0,0,1.29,2,1.78,1.78,0,0,0,.46,0,1.66,1.66,0,0,0,1.66-1.66,1.5,1.5,0,0,0-.47-1.13l-2.32-2.16A2,2,0,0,1,134,70.78a6,6,0,0,1,1,.12h.48v1.5h-.11a1.27,1.27,0,0,0-1.27-1.26H134a1.43,1.43,0,0,0-1.5,1.35v.05a1.55,1.55,0,0,0,.49,1.12Z" transform="translate(0 -5.61)"/><path class="cls-1" d="M147.66,78.57a.84.84,0,0,0,.89.77h.19v.11H146.1v-.11h.19a.5.5,0,0,0,.48-.51h0l-.55-6.11-2.55,5.67a6.13,6.13,0,0,0-.42,1.25h-.09l-3.1-6.74-.53,5.93a.49.49,0,0,0,.46.52h.19v.11h-2.35v-.11h.2a.82.82,0,0,0,.88-.77l.92-7.78h.11l3.39,7.32,3.32-7.32h.12Z" transform="translate(0 -5.61)"/><path class="cls-1" d="M155.61,79.44h-5v-.11h.16a.78.78,0,0,0,.78-.77V71.77a.78.78,0,0,0-.78-.7h-.16V71h3.55a5,5,0,0,0,1.44-.22v1.53h-.12v-.21a.71.71,0,0,0-.67-.72h-2.49v3.74h2a.58.58,0,0,0,.59-.58h0V74.3h.12v1.92H155V76a.6.6,0,0,0-.58-.59h-2.06v3.63h1.74a2.11,2.11,0,0,0,2.16-1.58h.11Z" transform="translate(0 -5.61)"/><path class="cls-1" d="M163.67,70.94a5.61,5.61,0,0,0,1.46-.22v1.53H165V72a.72.72,0,0,0-.69-.72H162v7.26a.77.77,0,0,0,.77.76h.15v.11h-2.65v-.11h.16a.79.79,0,0,0,.77-.75V71.3h-2.28a.72.72,0,0,0-.7.72v.22h-.13V70.72a5.49,5.49,0,0,0,1.46.22Z" transform="translate(0 -5.61)"/><path class="cls-1" d="M169.73,79.44h-2.66v-.11h.17a.85.85,0,0,0,.78-.77V71.83a.83.83,0,0,0-.78-.73h-.15V71h2.64v.11h-.16a.78.78,0,0,0-.77.76v6.71a.79.79,0,0,0,.77.77h.16Z" transform="translate(0 -5.61)"/><path class="cls-1" d="M179.78,75.9l-.15,1.91a3.78,3.78,0,0,1-3.41,1.81,4.42,4.42,0,0,1,.07-8.83,5.22,5.22,0,0,1,2.87.83l.25,1.71h-.1a2.94,2.94,0,0,0-3-2.17c-2.13,0-3.48,1.66-3.48,4s1.38,4,3.42,4.08c1.72,0,3.18-.83,3.45-3.32Z" transform="translate(0 -5.61)"/><path class="cls-1" d="M185.81,75.87a1.91,1.91,0,0,1,.61,1.47,2.15,2.15,0,0,1-2,2.28h-.27A3.16,3.16,0,0,1,182.1,79a3.48,3.48,0,0,1,.14-1.66h.1a1.68,1.68,0,0,0,1.29,2,1.78,1.78,0,0,0,.46,0,1.67,1.67,0,0,0,1.66-1.66,1.47,1.47,0,0,0-.48-1.13L183,74.34a2.06,2.06,0,0,1,1.48-3.56,6.14,6.14,0,0,1,1,.12H186v1.5h-.12a1.26,1.26,0,0,0-1.26-1.26h-.11A1.42,1.42,0,0,0,183,72.49v.05a1.51,1.51,0,0,0,.49,1.12Z" transform="translate(0 -5.61)"/></g></svg>