<?xml version="1.0" standalone="no"?>
<!DOCTYPE svg PUBLIC "-//W3C//DTD SVG 20010904//EN"
 "http://www.w3.org/TR/2001/REC-SVG-20010904/DTD/svg10.dtd">
<svg version="1.0" xmlns="http://www.w3.org/2000/svg"
 width="1792.000000pt" height="1792.000000pt" viewBox="0 0 1792.000000 1792.000000"
 preserveAspectRatio="xMidYMid meet">
<metadata>
Created by potrace 1.14, written by Peter Selinger 2001-2017
</metadata>
<g transform="translate(0.000000,1792.000000) scale(0.100000,-0.100000)"
fill="#000000" stroke="none">
<path d="M17397 11914 c-1 -1 -31 -4 -67 -8 -163 -16 -170 -17 -175 -40 -5
-26 -35 -181 -42 -216 -14 -81 -84 -330 -140 -503 -5 -16 2 -17 93 -13 112 6
112 6 154 106 14 33 28 60 31 60 4 0 10 11 13 25 4 14 17 49 30 78 48 105 118
302 155 437 12 41 21 76 21 77 0 3 -70 -1 -73 -3z"/>
<path d="M9238 11765 c-2 -2 -39 -6 -83 -10 -44 -4 -89 -9 -100 -11 -41 -9
-121 -25 -145 -29 -41 -7 -232 -65 -265 -79 -16 -8 -55 -24 -85 -37 -91 -38
-301 -159 -330 -189 -3 -3 -35 -29 -71 -57 -69 -54 -166 -153 -234 -238 -22
-28 -42 -52 -45 -55 -15 -13 -114 -177 -144 -238 -55 -108 -131 -307 -137
-357 0 -2 -7 -28 -15 -57 -64 -241 -79 -640 -34 -918 59 -357 216 -705 424
-934 64 -71 116 -123 152 -154 22 -17 50 -42 64 -53 79 -67 370 -239 404 -239
3 0 25 -8 49 -19 23 -10 76 -29 117 -41 41 -12 86 -26 100 -31 14 -4 39 -10
55 -13 17 -2 56 -10 89 -16 263 -51 600 -45 851 15 55 13 127 33 160 45 33 11
65 22 70 24 46 14 236 108 279 138 20 14 151 112 163 123 91 75 216 215 291
325 46 69 51 80 53 140 2 36 4 68 6 72 2 4 6 47 8 95 3 48 7 111 9 138 10 107
18 202 21 255 2 30 6 85 9 122 6 61 4 67 -15 73 -11 4 -22 5 -23 3 -1 -1 -8
-41 -14 -88 -16 -117 -20 -135 -48 -247 -30 -119 -23 -96 -71 -228 -118 -320
-344 -580 -628 -723 -111 -56 -286 -113 -390 -128 -16 -2 -41 -6 -55 -9 -90
-18 -311 -24 -434 -11 -77 8 -223 37 -266 53 -8 3 -19 7 -25 8 -22 6 -145 55
-167 66 -13 8 -26 13 -29 14 -3 0 -39 20 -80 44 -231 137 -422 344 -547 593
-82 164 -119 262 -152 403 -6 28 -15 66 -20 85 -38 156 -55 496 -36 715 4 44
14 121 23 170 8 50 17 99 19 110 29 171 135 429 248 602 63 97 70 105 186 222
211 212 456 335 775 386 111 18 326 20 450 5 474 -59 835 -306 1015 -693 40
-86 80 -197 80 -221 0 -8 8 -13 18 -11 9 2 21 4 25 4 5 1 6 15 2 31 -4 17 -8
47 -10 68 -2 20 -8 64 -13 97 -6 33 -14 83 -17 110 -3 28 -10 82 -16 120 -5
39 -12 84 -14 100 -2 17 -7 48 -11 70 -8 45 -12 80 -13 113 -1 27 -64 69 -218
146 -228 113 -451 181 -728 222 -42 6 -481 14 -487 9z"/>
<path d="M2 11670 c3 -23 7 -25 63 -26 127 -4 251 -84 306 -199 l24 -50 2
-1510 c1 -1472 -1 -1605 -29 -1605 -4 0 -8 -7 -8 -15 0 -9 -6 -23 -12 -31 -85
-105 -165 -148 -275 -149 l-73 0 0 -31 0 -31 1086 1 1086 1 30 80 c16 44 31
87 33 95 2 8 22 62 44 120 21 58 75 205 119 328 l79 222 -27 0 c-23 0 -29 -8
-58 -79 -74 -181 -206 -360 -329 -448 -59 -42 -147 -90 -182 -99 -9 -2 -50
-13 -91 -25 -109 -30 -104 -30 -595 -32 l-451 -3 1 1591 c1 874 5 1604 10
1620 39 143 168 242 324 248 57 3 64 5 68 25 1 12 -3 23 -10 24 -6 0 -265 2
-575 2 l-563 2 3 -26z"/>
<path d="M17599 11003 c-51 -15 -135 -31 -205 -39 -27 -3 -62 -7 -79 -9 -16
-3 -331 -5 -698 -5 l-668 -1 3 -21 c3 -19 10 -22 60 -24 99 -4 182 -57 230
-146 l23 -43 3 -1204 c3 -1353 7 -1271 -70 -1355 -52 -56 -135 -94 -203 -91
-40 2 -45 0 -45 -20 l0 -22 860 0 c611 0 863 3 869 11 6 9 73 189 85 231 2 6
6 17 9 25 3 8 22 62 42 120 21 58 41 114 46 125 5 11 20 52 33 92 19 57 22 73
11 77 -18 6 -27 -6 -60 -79 -104 -230 -231 -361 -410 -424 -115 -40 -183 -46
-545 -46 l-345 0 -3 625 -2 625 377 0 c343 -1 381 -3 412 -19 76 -40 116 -103
120 -189 2 -46 12 -66 34 -67 4 0 7 151 7 335 0 261 -3 335 -12 335 -24 0 -33
-15 -34 -55 -1 -22 -5 -55 -9 -74 -11 -46 -82 -116 -131 -130 -25 -7 -173 -11
-401 -11 l-363 0 0 643 0 643 448 -1 c434 -1 448 -1 492 -22 88 -42 140 -127
142 -232 1 -49 5 -60 20 -64 10 -3 19 -2 19 1 1 4 3 122 4 263 1 191 -1 256
-10 256 -7 0 -32 -6 -56 -14z"/>
<path d="M4239 11007 c0 -1 -2 -13 -5 -27 -4 -26 -48 -160 -63 -195 -5 -11
-39 -92 -76 -180 -36 -88 -70 -169 -75 -180 -11 -24 -76 -178 -160 -380 -34
-82 -72 -170 -83 -195 -11 -25 -22 -49 -23 -55 -3 -10 -111 -265 -142 -335 -8
-19 -17 -39 -18 -45 -2 -5 -30 -75 -64 -155 -34 -80 -77 -182 -96 -228 -19
-46 -42 -102 -53 -125 -10 -23 -42 -98 -70 -167 -54 -129 -56 -134 -90 -211
-11 -25 -29 -68 -39 -95 -67 -168 -119 -244 -209 -303 -53 -35 -128 -60 -194
-65 -40 -3 -45 -7 -40 -35 0 -4 189 -8 419 -7 410 1 417 1 417 21 0 16 -9 21
-45 26 -58 8 -90 21 -117 51 -44 47 -59 121 -39 188 5 14 45 117 89 230 45
113 82 207 82 210 1 3 7 19 14 35 6 17 19 50 28 75 9 25 20 49 25 54 4 6 8 15
8 22 0 6 8 29 17 50 9 22 16 42 15 47 -1 4 8 7 20 8 84 3 1109 1 1112 -2 4 -4
81 -205 121 -314 12 -33 53 -141 91 -240 60 -157 69 -188 69 -246 0 -57 -4
-71 -28 -102 -31 -41 -82 -67 -139 -70 -31 -2 -38 -6 -38 -23 l0 -21 465 0
465 1 0 23 c0 19 -5 23 -32 23 -160 1 -330 138 -383 310 -4 14 -18 48 -30 75
-13 28 -75 176 -139 330 -124 298 -124 296 -154 365 -11 25 -45 108 -77 185
-31 77 -68 164 -81 193 -13 29 -24 55 -24 57 0 3 -9 24 -19 48 -11 23 -48 110
-81 192 -34 83 -97 234 -141 337 -83 195 -101 240 -104 248 -2 5 -9 22 -50
120 -41 98 -48 115 -50 120 -1 3 -6 16 -12 30 -6 14 -36 86 -67 160 -67 162
-68 163 -89 166 -9 1 -17 2 -18 1z m29 -580 c13 -34 24 -66 26 -72 2 -5 6 -17
9 -25 7 -17 89 -236 122 -325 33 -91 123 -331 156 -415 87 -225 156 -416 153
-419 -6 -6 -1004 -7 -1014 -1 -7 5 109 317 155 417 8 17 15 35 15 40 0 6 7 24
16 42 9 17 17 37 18 44 2 7 8 23 14 37 5 14 31 79 56 145 26 66 51 129 56 140
5 11 21 52 36 90 14 39 29 75 34 80 5 6 8 12 7 15 -3 11 106 280 112 275 3 -4
16 -34 29 -68z"/>
<path d="M11504 10985 c2 -15 11 -20 32 -21 129 -2 219 -59 270 -169 l24 -50
0 -1221 c0 -1388 6 -1288 -82 -1375 -54 -53 -120 -81 -200 -83 -43 -1 -48 -3
-46 -21 3 -20 11 -20 465 -21 467 -1 485 0 465 34 -4 5 -32 11 -62 13 -101 4
-188 63 -236 160 l-27 53 0 1210 c1 666 3 1228 7 1248 6 38 36 99 65 132 45
51 132 88 208 87 40 0 59 14 45 36 -5 6 -181 9 -469 9 -460 0 -462 0 -459 -21z"/>
<path d="M12959 10993 c0 -10 -1 -127 -2 -260 -1 -168 1 -244 9 -247 24 -9 37
14 40 72 5 107 55 184 144 225 43 20 62 21 458 22 361 0 412 -2 413 -15 5 -94
0 -2486 -5 -2515 -14 -75 -68 -144 -144 -184 -29 -15 -55 -21 -112 -26 -25 -2
-48 -4 -52 -4 -3 -1 -5 -9 -4 -18 3 -17 32 -18 454 -19 l452 -1 0 24 c0 21 -4
23 -48 23 -105 0 -201 62 -245 158 l-21 47 -1 1255 c-1 690 2 1260 6 1265 5 6
152 10 411 9 352 -1 408 -3 442 -18 101 -42 155 -122 160 -233 2 -60 5 -68 22
-68 10 0 19 7 19 15 0 8 4 20 7 26 4 6 4 14 1 18 -4 3 -7 105 -7 225 -1 121
-3 222 -6 224 -3 3 -30 -1 -60 -9 -30 -8 -71 -17 -90 -20 -19 -3 -46 -7 -60
-10 -14 -2 -43 -8 -65 -12 -22 -4 -420 -7 -885 -7 -731 0 -926 4 -1000 19 -8
1 -31 6 -50 10 -19 4 -42 8 -50 10 -69 13 -97 20 -112 28 -14 7 -18 5 -19 -9z"/>
<path d="M7985 6708 c-116 -25 -171 -142 -122 -261 14 -32 14 -34 -14 -49 -15
-9 -40 -35 -55 -58 -24 -35 -28 -53 -28 -106 0 -135 88 -211 256 -222 75 -4
188 19 188 39 0 19 40 18 73 -1 35 -21 112 -36 157 -31 8 1 -8 11 -36 22 -28
10 -67 34 -88 52 l-36 32 14 40 c18 50 25 113 16 145 -10 36 5 70 31 70 12 0
19 3 16 7 -9 8 -178 10 -183 2 -2 -4 10 -9 26 -12 49 -10 73 -86 56 -175 -8
-39 -16 -41 -45 -14 -15 15 -56 52 -91 82 -160 139 -205 201 -203 282 3 57 23
91 68 112 83 40 176 -5 188 -91 5 -32 17 -40 18 -12 1 13 1 28 0 32 -1 4 3 16
8 26 8 14 5 23 -12 38 -22 20 -87 57 -87 50 0 -3 -17 -1 -37 2 -21 4 -56 3
-78 -1z m100 -504 c33 -28 73 -63 90 -77 26 -22 28 -27 15 -42 -23 -27 -70
-47 -122 -50 -130 -8 -223 67 -233 186 -3 44 19 121 43 150 13 16 20 12 81
-50 37 -36 94 -89 126 -117z"/>
<path d="M12639 6708 c-5 -69 -3 -108 3 -108 4 0 8 9 8 20 0 36 37 49 140 47
l95 -2 0 -294 c0 -267 -2 -297 -18 -317 -9 -12 -27 -25 -40 -27 -12 -2 28 -4
88 -4 61 -1 101 2 90 4 -11 3 -28 13 -37 24 -16 16 -18 46 -18 319 l0 300 98
0 c72 0 103 -4 120 -16 12 -8 21 -18 18 -22 -2 -4 0 -16 5 -27 6 -17 8 -16 9
10 2 17 2 34 1 38 -1 4 -2 19 -3 33 -2 24 -5 25 -48 19 -48 -7 -418 -9 -460
-2 -14 2 -31 7 -38 11 -7 4 -12 2 -13 -6z"/>
<path d="M3870 6683 c-6 -15 -13 -35 -17 -43 -3 -8 -7 -17 -8 -20 -1 -3 -7
-17 -13 -32 -7 -16 -17 -40 -24 -55 -6 -16 -12 -30 -13 -33 -1 -3 -9 -22 -18
-44 -9 -21 -17 -40 -17 -43 0 -2 -12 -30 -26 -61 -15 -31 -32 -73 -39 -92 -7
-19 -21 -55 -33 -80 -11 -25 -25 -60 -32 -78 -15 -38 -54 -72 -83 -72 -11 0
-18 -3 -14 -6 7 -7 187 -11 187 -4 0 3 -10 10 -22 15 -23 10 -30 37 -17 65 20
40 48 107 54 128 7 24 4 23 160 23 113 0 115 0 115 -10 0 -5 5 -22 12 -38 6
-15 12 -32 14 -38 1 -5 11 -32 21 -58 l18 -49 -23 -18 c-12 -10 -22 -20 -22
-22 0 -1 43 -3 95 -3 52 0 95 3 95 8 0 4 -6 7 -14 7 -16 0 -76 68 -76 86 0 9
-65 175 -90 229 -15 32 -101 239 -104 250 -1 6 -10 27 -19 49 -9 21 -17 42
-17 47 0 22 -21 17 -30 -8z m48 -201 c19 -53 38 -106 43 -117 6 -12 11 -28 13
-38 1 -9 5 -20 9 -23 18 -18 -1 -22 -105 -21 -95 2 -113 4 -110 17 6 29 105
280 111 280 3 0 21 -44 39 -98z"/>
<path d="M5424 6701 c-17 -5 -97 -8 -178 -7 -80 1 -146 -1 -146 -3 0 -2 11
-11 23 -22 l24 -18 -1 -296 -1 -296 -25 -19 c-14 -11 -20 -20 -15 -21 29 -2
175 -4 175 -1 0 2 -13 8 -30 13 -16 6 -32 20 -36 32 -8 25 -12 266 -4 268 17
3 167 4 178 1 7 -3 19 -16 27 -31 13 -24 14 -22 13 42 -1 37 -5 67 -10 67 -4
0 -8 -7 -8 -15 0 -9 -9 -19 -21 -23 -24 -9 -159 -9 -174 0 -8 5 -12 188 -6
278 1 13 18 16 109 15 110 0 142 -9 142 -41 0 -8 3 -14 8 -14 4 0 5 22 4 50
-2 27 -7 50 -10 49 -4 -1 -21 -4 -38 -8z"/>
<path d="M6610 6710 c-4 -14 -10 -51 -15 -105 -4 -33 -9 -73 -12 -90 -2 -16
-6 -46 -7 -65 -2 -19 -7 -60 -11 -90 -5 -30 -9 -66 -10 -80 -3 -41 -16 -153
-21 -185 -6 -33 -30 -65 -51 -65 -7 0 -13 -3 -13 -7 0 -7 81 -8 150 -3 21 2
22 3 5 7 -34 9 -43 22 -40 61 3 35 11 115 20 212 2 25 7 78 10 117 4 40 8 79
9 87 3 19 16 34 16 18 0 -6 15 -43 34 -84 18 -40 56 -122 84 -183 126 -275
119 -263 130 -235 13 32 24 62 28 75 2 9 72 163 153 340 16 33 31 70 35 83 9
26 21 29 22 5 1 -21 13 -163 18 -213 2 -19 7 -69 10 -111 4 -42 9 -88 12 -103
5 -31 -11 -66 -31 -66 -8 0 -15 -3 -15 -7 0 -10 198 -8 208 1 4 4 2 7 -3 6
-52 -11 -83 15 -91 76 -3 27 -7 60 -9 74 -2 14 -7 54 -10 90 -4 35 -8 72 -10
81 -2 9 -6 38 -9 65 -4 27 -9 65 -11 84 -10 79 -18 156 -19 178 0 32 -19 27
-35 -10 -56 -127 -153 -343 -191 -423 -16 -33 -34 -73 -41 -90 l-12 -30 -10
28 c-6 15 -14 27 -19 27 -4 0 -8 7 -8 15 0 8 -8 29 -18 47 -10 18 -31 62 -47
98 -64 147 -173 377 -175 370z"/>
<path d="M9119 6705 c-3 -2 -16 -5 -29 -7 -38 -6 -100 -42 -153 -88 -98 -86
-137 -242 -93 -366 50 -144 177 -236 326 -237 86 -1 142 19 203 73 44 38 57
60 62 103 14 115 14 121 5 107 -5 -8 -10 -24 -10 -34 0 -30 -50 -129 -79 -154
-97 -87 -268 -87 -363 1 -128 119 -136 367 -14 495 61 66 170 95 267 72 58
-14 124 -69 150 -124 l19 -41 -5 58 c-3 32 -6 63 -8 70 -5 28 -119 68 -208 73
-36 2 -68 2 -70 -1z"/>
<path d="M9872 6688 c-77 -28 -148 -88 -185 -156 -37 -68 -40 -83 -41 -177 0
-66 4 -90 27 -138 43 -95 141 -174 242 -195 43 -9 135 -9 151 0 5 3 23 9 41
12 31 7 95 48 131 84 68 68 101 158 97 268 -3 115 -49 202 -137 265 -83 59
-220 75 -326 37z m233 -33 c69 -31 133 -122 150 -210 16 -88 -2 -242 -32 -266
-7 -6 -13 -16 -13 -21 0 -5 -16 -26 -36 -48 -38 -41 -119 -76 -155 -67 -10 3
-21 1 -24 -3 -9 -14 -114 16 -156 46 -77 53 -124 161 -120 274 1 50 12 114 22
132 5 10 7 18 4 18 -7 0 42 78 64 101 27 28 87 57 133 64 24 4 44 8 46 10 5 5
85 -16 117 -30z"/>
<path d="M10615 6694 c-40 -21 -75 -73 -82 -122 -9 -70 10 -103 119 -204 163
-150 174 -167 155 -238 -17 -64 -67 -100 -140 -100 -35 0 -51 6 -81 33 -32 27
-39 40 -44 82 -5 42 -7 46 -13 25 -14 -48 -10 -106 9 -122 43 -37 140 -55 204
-38 103 28 158 155 108 250 -12 24 -27 39 -174 178 -36 34 -66 69 -66 77 0 8
-4 15 -10 15 -15 0 -12 45 4 85 24 56 99 81 162 53 16 -7 35 -30 45 -53 l19
-40 0 63 c0 34 -3 62 -7 62 -5 0 -46 3 -93 5 -65 4 -92 1 -115 -11z"/>
<path d="M11177 6703 c-2 -4 -7 -40 -11 -78 -4 -39 -8 -81 -11 -95 -4 -23 -9
-68 -20 -175 -2 -22 -7 -58 -10 -80 -3 -22 -8 -64 -10 -93 -11 -126 -24 -153
-77 -157 -3 0 -9 -2 -12 -5 -2 -3 33 -5 80 -5 46 0 84 2 84 5 0 3 -8 10 -19
17 -19 12 -20 17 -7 158 3 33 9 92 12 130 4 39 8 79 9 90 1 11 3 39 4 63 1 45
15 56 26 21 4 -11 27 -64 52 -117 75 -162 104 -225 131 -282 14 -30 26 -57 27
-60 0 -3 5 -14 11 -24 10 -17 13 -15 24 20 12 38 25 68 80 189 54 119 77 171
105 235 34 79 45 92 46 60 1 -26 4 -57 14 -155 11 -103 17 -197 19 -264 1 -61
0 -65 -24 -72 -33 -9 -22 -11 92 -13 100 -1 108 1 56 19 -35 11 -43 31 -54
125 -3 30 -7 71 -9 90 -3 19 -7 58 -10 85 -6 60 -13 116 -19 170 -3 22 -8 67
-12 100 -7 70 -12 96 -17 102 -3 2 -85 -163 -92 -187 -4 -14 -29 -71 -57 -129
-16 -37 -48 -106 -70 -156 -22 -49 -43 -93 -47 -98 -4 -4 -34 50 -66 120 -167
365 -212 456 -218 446z"/>
<path d="M12382 6699 c-10 -4 -87 -7 -170 -6 -84 0 -155 -3 -159 -8 -5 -4 -3
-5 3 -2 7 4 22 -1 35 -11 22 -19 22 -20 22 -310 0 -268 -1 -293 -18 -312 -10
-11 -27 -20 -38 -20 -11 0 -18 -3 -14 -6 10 -10 387 -8 396 2 10 11 61 144 55
144 -2 0 -11 -15 -20 -32 -34 -66 -86 -88 -205 -88 l-89 0 0 145 0 145 87 0
c72 0 90 -3 107 -19 l21 -20 -4 52 c-3 47 -4 50 -17 32 -12 -16 -28 -20 -104
-21 -50 -1 -91 1 -91 5 -1 3 -2 70 -3 149 l-1 142 112 0 c102 0 114 -2 125
-20 19 -30 25 -24 24 24 0 47 -8 52 -54 35z"/>
<path d="M14020 6699 c-19 -5 -42 -13 -50 -16 -8 -3 -18 -5 -22 -5 -5 1 -8 -2
-8 -7 0 -5 -9 -12 -19 -16 -24 -7 -79 -59 -110 -103 -76 -108 -75 -286 3 -396
90 -127 260 -184 395 -133 67 26 151 105 152 145 0 15 2 47 4 72 l2 45 -17
-54 c-34 -108 -84 -161 -177 -185 -218 -58 -390 130 -351 383 26 163 140 258
298 248 90 -7 163 -57 201 -140 l19 -42 -6 55 c-4 30 -8 62 -10 70 -1 8 -3 18
-3 21 -1 4 -28 18 -62 33 -68 29 -182 41 -239 25z"/>
<path d="M14658 6685 c-81 -56 -105 -135 -64 -213 8 -15 62 -74 121 -132 130
-128 135 -136 127 -221 -3 -27 -55 -76 -92 -86 -88 -24 -168 26 -175 107 -2
35 -14 52 -16 24 -9 -117 -10 -112 38 -135 44 -21 126 -31 178 -22 46 9 105
73 120 128 22 88 5 122 -129 250 -63 61 -121 125 -129 144 -36 85 50 171 147
147 31 -8 66 -44 66 -68 0 -10 4 -18 8 -18 5 0 9 25 10 55 1 62 12 56 -115 60
-50 2 -68 -2 -95 -20z"/>
<path d="M3066 6692 c-14 -3 -13 -6 8 -23 l24 -19 0 -287 c1 -309 -3 -333 -50
-333 -12 0 -19 -3 -15 -6 9 -9 206 -10 200 -1 -2 4 -13 7 -23 7 -39 0 -43 32
-44 337 -1 189 3 293 9 294 6 1 41 1 78 1 111 -2 162 -56 153 -161 -5 -53 -39
-121 -63 -121 -6 0 -13 -4 -15 -10 -1 -5 -32 -13 -67 -16 -58 -7 -61 -8 -40
-20 13 -7 27 -10 31 -8 3 2 9 0 12 -4 5 -9 27 -8 75 2 36 8 101 56 117 88 33
64 26 170 -13 215 -26 29 -70 55 -101 60 -36 5 -254 9 -276 5z"/>
<path d="M4410 6689 c-19 -4 -28 -7 -19 -8 41 -3 43 -22 44 -317 0 -156 -3
-293 -7 -304 -4 -11 -19 -22 -33 -26 -14 -3 -25 -9 -25 -13 0 -9 188 -6 197 4
4 4 2 5 -4 1 -8 -4 -23 3 -38 18 l-25 25 0 299 0 299 56 2 c88 2 130 -14 160
-59 21 -31 25 -49 23 -92 -3 -65 -19 -99 -63 -133 -28 -21 -46 -26 -91 -26
l-57 0 39 -26 c22 -14 61 -59 93 -106 30 -45 57 -84 60 -87 3 -3 13 -17 23
-33 32 -50 99 -85 174 -91 48 -4 61 10 18 18 -28 6 -53 23 -96 67 -33 33 -59
64 -59 68 0 4 -11 21 -25 37 -14 16 -25 33 -25 38 0 5 -16 24 -35 43 -19 19
-35 35 -35 37 0 2 17 8 38 14 100 30 146 153 96 258 -37 78 -73 94 -226 97
-68 1 -139 -1 -158 -4z"/>
<path d="M5677 6687 c2 -4 8 -5 12 -2 5 2 15 -3 24 -13 13 -15 16 -56 19 -257
3 -265 8 -287 73 -349 51 -49 100 -66 195 -66 128 0 198 41 243 140 19 41 21
66 22 276 1 245 4 264 48 264 11 0 18 3 14 6 -5 6 -147 12 -147 7 0 -2 9 -12
19 -22 19 -19 20 -35 19 -256 0 -129 -4 -238 -9 -241 -5 -3 -9 -12 -9 -21 0
-29 -59 -90 -107 -111 -128 -54 -263 18 -289 155 -5 29 -9 344 -5 441 1 17 10
27 31 35 17 6 30 14 30 17 0 3 -42 5 -94 5 -52 0 -92 -3 -89 -8z"/>
<path d="M13367 6688 c-7 -5 -3 -8 10 -8 49 0 53 -22 53 -326 0 -260 -1 -283
-19 -302 -10 -12 -26 -22 -36 -22 -10 0 -16 -3 -12 -6 9 -9 167 -10 180 -2 8
5 6 8 -5 8 -42 0 -46 31 -47 310 0 146 3 278 6 293 3 20 15 33 36 43 18 7 25
14 17 14 -83 5 -174 4 -183 -2z"/>
<path d="M12425 6600 c3 -5 8 -10 11 -10 2 0 4 5 4 10 0 6 -5 10 -11 10 -5 0
-7 -4 -4 -10z"/>
<path d="M12380 6420 c0 -5 5 -10 11 -10 5 0 7 5 4 10 -3 6 -8 10 -11 10 -2 0
-4 -4 -4 -10z"/>
</g>
</svg>
