<svg width="7" height="10" viewBox="0 0 7 10" fill="#F2B1A5" xmlns="http://www.w3.org/2000/svg">
<path stroke="none" d="M2.37312 0.292893C1.9826 -0.097631 1.34943 -0.0976311 0.958909 0.292893C0.568385 0.683417 0.568385 1.31658 0.958909 1.70711L2.37312 0.292893ZM5.66601 5L6.37312 5.70711C6.76365 5.31658 6.76365 4.68342 6.37312 4.29289L5.66601 5ZM0.958909 8.29289C0.568385 8.68342 0.568385 9.31658 0.958909 9.70711C1.34943 10.0976 1.9826 10.0976 2.37312 9.70711L0.958909 8.29289ZM0.958909 1.70711L4.95891 5.70711L6.37312 4.29289L2.37312 0.292893L0.958909 1.70711ZM4.95891 4.29289L0.958909 8.29289L2.37312 9.70711L6.37312 5.70711L4.95891 4.29289Z"/>
</svg>
