<svg width="25" height="24" viewBox="0 0 25 24" stroke="white" fill="none" xmlns="http://www.w3.org/2000/svg">
<path d="M9.07143 7V4.8C9.07143 4.32261 9.25204 3.86477 9.57353 3.52721C9.89502 3.18964 10.3311 3 10.7857 3H14.2143C14.6689 3 15.105 3.18964 15.4265 3.52721C15.748 3.86477 15.9286 4.32261 15.9286 4.8V7M19.5 7L18.5 19.2C18.5 19.6774 18.3194 20.1352 17.9979 20.4728C17.6764 20.8104 17.2404 21 16.7857 21H8.21429C7.75963 21 7.32359 20.8104 7.0021 20.4728C6.68061 20.1352 6.5 19.6774 6.5 19.2L5.5 7H19.5Z" stroke-width="2" stroke-linecap="round" stroke-linejoin="round" fill="none"/>
<path d="M4.5 7H6.27778H20.5" fill="none" stroke-width="2" stroke-linecap="round" stroke-linejoin="round"/>
<path d="M10.5 11V16" fill="none" stroke-width="2" stroke-linecap="round" stroke-linejoin="round"/>
<path d="M14.5 11V16" fill="none" stroke-width="2" stroke-linecap="round" stroke-linejoin="round"/>
</svg>
