<svg width="24" height="24" viewBox="0 0 24 24" stroke="#262626" fill="#262626" xmlns="http://www.w3.org/2000/svg">
<path stroke="none" d="M3 3C2.44772 3 2 3.44772 2 4C2 4.55228 2.44772 5 3 5V3ZM5 4L5.99589 3.90946C5.94907 3.39439 5.5172 3 5 3V4ZM21.9899 7.14142C22.0681 6.59469 21.6882 6.08816 21.1414 6.01005C20.5947 5.93195 20.0882 6.31184 20.0101 6.85858L21.9899 7.14142ZM5.27273 7L4.27683 7.09054L5.27273 7ZM7.95668 14.8602L7.88543 13.8628L7.95668 14.8602ZM3 5H5V3H3V5ZM8.02793 15.8577L18.462 15.1124L18.3195 13.1175L7.88543 13.8628L8.02793 15.8577ZM21.2181 12.5443L21.9899 7.14142L20.0101 6.85858L19.2382 12.2614L21.2181 12.5443ZM4.00411 4.09054L4.27683 7.09054L6.26862 6.90946L5.99589 3.90946L4.00411 4.09054ZM4.27683 7.09054L4.82651 13.1369L6.81829 12.9559L6.26862 6.90946L4.27683 7.09054ZM18.462 15.1124C19.8707 15.0118 21.0184 13.9423 21.2181 12.5443L19.2382 12.2614C19.1716 12.7275 18.7891 13.0839 18.3195 13.1175L18.462 15.1124ZM7.88543 13.8628C7.34207 13.9016 6.86761 13.4984 6.81829 12.9559L4.82651 13.1369C4.97446 14.7644 6.39785 15.9741 8.02793 15.8577L7.88543 13.8628Z"/>
<path fill="none" d="M13 6V10" stroke-width="2" stroke-linecap="round" stroke-linejoin="round"/>
<path fill="none" d="M11 8H15" stroke-width="2" stroke-linecap="round" stroke-linejoin="round"/>
<path fill="none" d="M9 20C9.55228 20 10 19.5523 10 19C10 18.4477 9.55228 18 9 18C8.44772 18 8 18.4477 8 19C8 19.5523 8.44772 20 9 20Z" stroke-width="2" stroke-linecap="round" stroke-linejoin="round"/>
<path fill="none" d="M17 20C17.5523 20 18 19.5523 18 19C18 18.4477 17.5523 18 17 18C16.4477 18 16 18.4477 16 19C16 19.5523 16.4477 20 17 20Z" stroke-width="2" stroke-linecap="round" stroke-linejoin="round"/>
</svg>
