<svg width="115" height="13" viewBox="0 0 115 13" fill="none" xmlns="http://www.w3.org/2000/svg">
<path d="M4.48442 10.168C3.13242 10.168 2.10042 9.792 1.38842 9.04C0.684422 8.288 0.332422 7.22 0.332422 5.836C0.332422 5.148 0.440422 4.536 0.656422 4C0.872422 3.456 1.16842 3 1.54442 2.632C1.92042 2.256 2.36842 1.972 2.88842 1.78C3.40842 1.588 3.97242 1.492 4.58042 1.492C4.93242 1.492 5.25242 1.52 5.54042 1.576C5.82842 1.624 6.08042 1.684 6.29642 1.756C6.51242 1.82 6.69242 1.888 6.83642 1.96C6.98042 2.032 7.08442 2.088 7.14842 2.128L6.60842 3.64C6.35242 3.504 6.05242 3.388 5.70842 3.292C5.37242 3.196 4.98842 3.148 4.55642 3.148C4.26842 3.148 3.98442 3.196 3.70442 3.292C3.43242 3.388 3.18842 3.544 2.97242 3.76C2.76442 3.968 2.59642 4.24 2.46842 4.576C2.34042 4.912 2.27642 5.32 2.27642 5.8C2.27642 6.184 2.31642 6.544 2.39642 6.88C2.48442 7.208 2.62042 7.492 2.80442 7.732C2.99642 7.972 3.24442 8.164 3.54842 8.308C3.85242 8.444 4.22042 8.512 4.65242 8.512C4.92442 8.512 5.16842 8.496 5.38442 8.464C5.60042 8.432 5.79242 8.396 5.96042 8.356C6.12842 8.308 6.27642 8.256 6.40442 8.2C6.53242 8.144 6.64842 8.092 6.75242 8.044L7.26842 9.544C7.00442 9.704 6.63242 9.848 6.15242 9.976C5.67242 10.104 5.11642 10.168 4.48442 10.168ZM10.9097 1.588C12.1577 1.588 13.1137 1.812 13.7777 2.26C14.4417 2.7 14.7737 3.388 14.7737 4.324C14.7737 4.908 14.6377 5.384 14.3657 5.752C14.1017 6.112 13.7177 6.396 13.2137 6.604C13.3817 6.812 13.5577 7.052 13.7417 7.324C13.9257 7.588 14.1057 7.868 14.2817 8.164C14.4657 8.452 14.6417 8.756 14.8097 9.076C14.9777 9.388 15.1337 9.696 15.2777 10H13.1777C13.0257 9.728 12.8697 9.452 12.7097 9.172C12.5577 8.892 12.3977 8.62 12.2297 8.356C12.0697 8.092 11.9097 7.844 11.7497 7.612C11.5897 7.372 11.4297 7.156 11.2697 6.964H10.3457V10H8.47367V1.804C8.88167 1.724 9.30167 1.668 9.73367 1.636C10.1737 1.604 10.5657 1.588 10.9097 1.588ZM11.0177 3.184C10.8817 3.184 10.7577 3.188 10.6457 3.196C10.5417 3.204 10.4417 3.212 10.3457 3.22V5.476H10.8737C11.5777 5.476 12.0817 5.388 12.3857 5.212C12.6897 5.036 12.8417 4.736 12.8417 4.312C12.8417 3.904 12.6857 3.616 12.3737 3.448C12.0697 3.272 11.6177 3.184 11.0177 3.184ZM16.4776 10V1.684H22.0936V3.256H18.3496V4.888H21.6736V6.424H18.3496V8.428H22.3696V10H16.4776ZM29.3229 10C29.2349 9.712 29.1349 9.416 29.0229 9.112C28.9189 8.808 28.8149 8.504 28.7109 8.2H25.4709C25.3669 8.504 25.2589 8.808 25.1469 9.112C25.0429 9.416 24.9469 9.712 24.8589 10H22.9149C23.2269 9.104 23.5229 8.276 23.8029 7.516C24.0829 6.756 24.3549 6.04 24.6189 5.368C24.8909 4.696 25.1549 4.06 25.4109 3.46C25.6749 2.852 25.9469 2.26 26.2269 1.684H28.0149C28.2869 2.26 28.5549 2.852 28.8189 3.46C29.0829 4.06 29.3469 4.696 29.6109 5.368C29.8829 6.04 30.1589 6.756 30.4389 7.516C30.7189 8.276 31.0149 9.104 31.3269 10H29.3229ZM27.0789 3.568C27.0389 3.688 26.9789 3.852 26.8989 4.06C26.8189 4.268 26.7269 4.508 26.6229 4.78C26.5189 5.052 26.4029 5.352 26.2749 5.68C26.1549 6.008 26.0309 6.352 25.9029 6.712H28.2669C28.1389 6.352 28.0149 6.008 27.8949 5.68C27.7749 5.352 27.6589 5.052 27.5469 4.78C27.4429 4.508 27.3509 4.268 27.2709 4.06C27.1909 3.852 27.1269 3.688 27.0789 3.568ZM37.587 1.684V3.28H35.079V10H33.207V3.28H30.699V1.684H37.587ZM38.7901 10V1.684H44.4061V3.256H40.6621V4.888H43.9861V6.424H40.6621V8.428H44.6821V10H38.7901ZM47.9394 8.476C48.0274 8.484 48.1274 8.492 48.2394 8.5C48.3594 8.5 48.4994 8.5 48.6594 8.5C49.5954 8.5 50.2874 8.264 50.7354 7.792C51.1914 7.32 51.4194 6.668 51.4194 5.836C51.4194 4.964 51.2034 4.304 50.7714 3.856C50.3394 3.408 49.6554 3.184 48.7194 3.184C48.5914 3.184 48.4594 3.188 48.3234 3.196C48.1874 3.196 48.0594 3.204 47.9394 3.22V8.476ZM53.3514 5.836C53.3514 6.556 53.2394 7.184 53.0154 7.72C52.7914 8.256 52.4714 8.7 52.0554 9.052C51.6474 9.404 51.1474 9.668 50.5554 9.844C49.9634 10.02 49.2994 10.108 48.5634 10.108C48.2274 10.108 47.8354 10.092 47.3874 10.06C46.9394 10.036 46.4994 9.98 46.0674 9.892V1.792C46.4994 1.712 46.9474 1.66 47.4114 1.636C47.8834 1.604 48.2874 1.588 48.6234 1.588C49.3354 1.588 49.9794 1.668 50.5554 1.828C51.1394 1.988 51.6394 2.24 52.0554 2.584C52.4714 2.928 52.7914 3.368 53.0154 3.904C53.2394 4.44 53.3514 5.084 53.3514 5.836ZM60.5699 10.108C60.1139 10.108 59.6579 10.092 59.2019 10.06C58.7539 10.036 58.2859 9.972 57.7979 9.868V1.804C58.1819 1.732 58.6019 1.68 59.0579 1.648C59.5139 1.608 59.9379 1.588 60.3299 1.588C60.8579 1.588 61.3419 1.628 61.7819 1.708C62.2299 1.78 62.6139 1.908 62.9339 2.092C63.2539 2.276 63.5019 2.52 63.6779 2.824C63.8619 3.12 63.9539 3.488 63.9539 3.928C63.9539 4.592 63.6339 5.116 62.9939 5.5C63.5219 5.7 63.8819 5.972 64.0739 6.316C64.2659 6.66 64.3619 7.048 64.3619 7.48C64.3619 8.352 64.0419 9.008 63.4019 9.448C62.7699 9.888 61.8259 10.108 60.5699 10.108ZM59.6219 6.376V8.524C59.7579 8.54 59.9059 8.552 60.0659 8.56C60.2259 8.568 60.4019 8.572 60.5939 8.572C61.1539 8.572 61.6059 8.492 61.9499 8.332C62.2939 8.172 62.4659 7.876 62.4659 7.444C62.4659 7.06 62.3219 6.788 62.0339 6.628C61.7459 6.46 61.3339 6.376 60.7979 6.376H59.6219ZM59.6219 4.948H60.5339C61.1099 4.948 61.5219 4.876 61.7699 4.732C62.0179 4.58 62.1419 4.34 62.1419 4.012C62.1419 3.676 62.0139 3.44 61.7579 3.304C61.5019 3.168 61.1259 3.1 60.6299 3.1C60.4699 3.1 60.2979 3.104 60.1139 3.112C59.9299 3.112 59.7659 3.12 59.6219 3.136V4.948ZM68.4982 5.104C68.8342 4.536 69.1542 3.968 69.4582 3.4C69.7622 2.832 70.0422 2.26 70.2982 1.684H72.3622C71.9062 2.58 71.4342 3.448 70.9462 4.288C70.4582 5.128 69.9422 5.972 69.3982 6.82V10H67.5262V6.844C66.9822 5.996 66.4622 5.148 65.9662 4.3C65.4782 3.452 65.0062 2.58 64.5502 1.684H66.7222C66.9782 2.26 67.2542 2.832 67.5502 3.4C67.8462 3.968 68.1622 4.536 68.4982 5.104ZM92.5496 0.603999H94.3616L98.3936 12.22H96.5576L92.5496 0.603999ZM101.457 10.108C101.001 10.108 100.545 10.092 100.089 10.06C99.6406 10.036 99.1726 9.972 98.6846 9.868V1.804C99.0686 1.732 99.4886 1.68 99.9446 1.648C100.401 1.608 100.825 1.588 101.217 1.588C101.745 1.588 102.229 1.628 102.669 1.708C103.117 1.78 103.501 1.908 103.821 2.092C104.141 2.276 104.389 2.52 104.565 2.824C104.749 3.12 104.841 3.488 104.841 3.928C104.841 4.592 104.521 5.116 103.881 5.5C104.409 5.7 104.769 5.972 104.961 6.316C105.153 6.66 105.249 7.048 105.249 7.48C105.249 8.352 104.929 9.008 104.289 9.448C103.657 9.888 102.713 10.108 101.457 10.108ZM100.509 6.376V8.524C100.645 8.54 100.793 8.552 100.953 8.56C101.113 8.568 101.289 8.572 101.481 8.572C102.041 8.572 102.493 8.492 102.837 8.332C103.181 8.172 103.353 7.876 103.353 7.444C103.353 7.06 103.209 6.788 102.921 6.628C102.633 6.46 102.221 6.376 101.685 6.376H100.509ZM100.509 4.948H101.421C101.997 4.948 102.409 4.876 102.657 4.732C102.905 4.58 103.029 4.34 103.029 4.012C103.029 3.676 102.901 3.44 102.645 3.304C102.389 3.168 102.013 3.1 101.517 3.1C101.357 3.1 101.185 3.104 101.001 3.112C100.817 3.112 100.653 3.12 100.509 3.136V4.948ZM108.319 5.836C108.319 6.244 108.367 6.612 108.463 6.94C108.567 7.268 108.711 7.552 108.895 7.792C109.087 8.024 109.319 8.204 109.591 8.332C109.863 8.46 110.175 8.524 110.527 8.524C110.871 8.524 111.179 8.46 111.451 8.332C111.731 8.204 111.963 8.024 112.147 7.792C112.339 7.552 112.483 7.268 112.579 6.94C112.683 6.612 112.735 6.244 112.735 5.836C112.735 5.428 112.683 5.06 112.579 4.732C112.483 4.396 112.339 4.112 112.147 3.88C111.963 3.64 111.731 3.456 111.451 3.328C111.179 3.2 110.871 3.136 110.527 3.136C110.175 3.136 109.863 3.204 109.591 3.34C109.319 3.468 109.087 3.652 108.895 3.892C108.711 4.124 108.567 4.408 108.463 4.744C108.367 5.072 108.319 5.436 108.319 5.836ZM114.667 5.836C114.667 6.548 114.559 7.176 114.343 7.72C114.135 8.256 113.847 8.708 113.479 9.076C113.111 9.436 112.671 9.708 112.159 9.892C111.655 10.076 111.111 10.168 110.527 10.168C109.959 10.168 109.423 10.076 108.919 9.892C108.415 9.708 107.975 9.436 107.599 9.076C107.223 8.708 106.927 8.256 106.711 7.72C106.495 7.176 106.387 6.548 106.387 5.836C106.387 5.124 106.499 4.5 106.723 3.964C106.947 3.42 107.247 2.964 107.623 2.596C108.007 2.228 108.447 1.952 108.943 1.768C109.447 1.584 109.975 1.492 110.527 1.492C111.095 1.492 111.631 1.584 112.135 1.768C112.639 1.952 113.079 2.228 113.455 2.596C113.831 2.964 114.127 3.42 114.343 3.964C114.559 4.5 114.667 5.124 114.667 5.836Z" fill="white"/>
<path d="M79.0386 10.108C78.5826 10.108 78.1266 10.092 77.6706 10.06C77.2226 10.036 76.7546 9.972 76.2666 9.868V1.804C76.6506 1.732 77.0706 1.68 77.5266 1.648C77.9826 1.608 78.4066 1.588 78.7986 1.588C79.3266 1.588 79.8106 1.628 80.2506 1.708C80.6986 1.78 81.0826 1.908 81.4026 2.092C81.7226 2.276 81.9706 2.52 82.1466 2.824C82.3306 3.12 82.4226 3.488 82.4226 3.928C82.4226 4.592 82.1026 5.116 81.4626 5.5C81.9906 5.7 82.3506 5.972 82.5426 6.316C82.7346 6.66 82.8306 7.048 82.8306 7.48C82.8306 8.352 82.5106 9.008 81.8706 9.448C81.2386 9.888 80.2946 10.108 79.0386 10.108ZM78.0906 6.376V8.524C78.2266 8.54 78.3746 8.552 78.5346 8.56C78.6946 8.568 78.8706 8.572 79.0626 8.572C79.6226 8.572 80.0746 8.492 80.4186 8.332C80.7626 8.172 80.9346 7.876 80.9346 7.444C80.9346 7.06 80.7906 6.788 80.5026 6.628C80.2146 6.46 79.8026 6.376 79.2666 6.376H78.0906ZM78.0906 4.948H79.0026C79.5786 4.948 79.9906 4.876 80.2386 4.732C80.4866 4.58 80.6106 4.34 80.6106 4.012C80.6106 3.676 80.4826 3.44 80.2266 3.304C79.9706 3.168 79.5946 3.1 79.0986 3.1C78.9386 3.1 78.7666 3.104 78.5826 3.112C78.3986 3.112 78.2346 3.12 78.0906 3.136V4.948ZM85.9011 5.836C85.9011 6.244 85.9491 6.612 86.0451 6.94C86.1491 7.268 86.2931 7.552 86.4771 7.792C86.6691 8.024 86.9011 8.204 87.1731 8.332C87.4451 8.46 87.7571 8.524 88.1091 8.524C88.4531 8.524 88.7611 8.46 89.0331 8.332C89.3131 8.204 89.5451 8.024 89.7291 7.792C89.9211 7.552 90.0651 7.268 90.1611 6.94C90.2651 6.612 90.3171 6.244 90.3171 5.836C90.3171 5.428 90.2651 5.06 90.1611 4.732C90.0651 4.396 89.9211 4.112 89.7291 3.88C89.5451 3.64 89.3131 3.456 89.0331 3.328C88.7611 3.2 88.4531 3.136 88.1091 3.136C87.7571 3.136 87.4451 3.204 87.1731 3.34C86.9011 3.468 86.6691 3.652 86.4771 3.892C86.2931 4.124 86.1491 4.408 86.0451 4.744C85.9491 5.072 85.9011 5.436 85.9011 5.836ZM92.2491 5.836C92.2491 6.548 92.1411 7.176 91.9251 7.72C91.7171 8.256 91.4291 8.708 91.0611 9.076C90.6931 9.436 90.2531 9.708 89.7411 9.892C89.2371 10.076 88.6931 10.168 88.1091 10.168C87.5411 10.168 87.0051 10.076 86.5011 9.892C85.9971 9.708 85.5571 9.436 85.1811 9.076C84.8051 8.708 84.5091 8.256 84.2931 7.72C84.0771 7.176 83.9691 6.548 83.9691 5.836C83.9691 5.124 84.0811 4.5 84.3051 3.964C84.5291 3.42 84.8291 2.964 85.2051 2.596C85.5891 2.228 86.0291 1.952 86.5251 1.768C87.0291 1.584 87.5571 1.492 88.1091 1.492C88.6771 1.492 89.2131 1.584 89.7171 1.768C90.2211 1.952 90.6611 2.228 91.0371 2.596C91.4131 2.964 91.7091 3.42 91.9251 3.964C92.1411 4.5 92.2491 5.124 92.2491 5.836Z" fill="#D82525"/>
</svg>
