<svg width="18" height="13" viewBox="0 0 18 13" fill="#262626" xmlns="http://www.w3.org/2000/svg">
<path d="M1.5 1V0C0.947715 0 0.5 0.447715 0.5 1L1.5 1ZM11.0455 1H12.0455C12.0455 0.447715 11.5977 0 11.0455 0V1ZM11.0455 3.03125V2.03125C10.7802 2.03125 10.5259 2.13661 10.3383 2.32414C10.1508 2.51168 10.0455 2.76603 10.0455 3.03125L11.0455 3.03125ZM1.5 2H11.0455V0H1.5V2ZM10.0455 1V10.4792H12.0455V1H10.0455ZM2.5 8.47917V1H0.5V8.47917H2.5ZM11.0455 4.03125H12.5V2.03125H11.0455V4.03125ZM15.5 7.03125V9.11553H17.5V7.03125H15.5ZM12.0455 10.4792L12.0455 3.03125L10.0455 3.03125L10.0455 10.4792L12.0455 10.4792ZM14.0323 10.7271C13.8897 10.8687 13.6557 10.8687 13.5131 10.7271L12.1039 12.1463C13.0263 13.0624 14.5191 13.0624 15.4416 12.1463L14.0323 10.7271ZM13.5131 10.2312C13.6557 10.0896 13.8897 10.0896 14.0323 10.2312L15.4416 8.81206C14.5191 7.89598 13.0263 7.89598 12.1039 8.81206L13.5131 10.2312ZM5.16869 10.7271C5.02611 10.8687 4.79207 10.8687 4.64949 10.7271L3.24022 12.1463C4.1627 13.0624 5.65548 13.0624 6.57797 12.1463L5.16869 10.7271ZM4.64949 10.2312C4.79207 10.0896 5.02611 10.0896 5.16869 10.2312L6.57797 8.81206C5.65548 7.89598 4.1627 7.89598 3.24022 8.81206L4.64949 10.2312ZM14.0323 10.2312C14.1027 10.3011 14.1364 10.3892 14.1364 10.4792H16.1364C16.1364 9.87602 15.9038 9.27103 15.4416 8.81206L14.0323 10.2312ZM14.1364 10.4792C14.1364 10.5691 14.1027 10.6573 14.0323 10.7271L15.4416 12.1463C15.9038 11.6873 16.1364 11.0823 16.1364 10.4792H14.1364ZM12.4091 9.47917H11.0455V11.4792H12.4091V9.47917ZM13.5131 10.7271C13.4428 10.6573 13.4091 10.5691 13.4091 10.4792H11.4091C11.4091 11.0823 11.6417 11.6873 12.1039 12.1463L13.5131 10.7271ZM13.4091 10.4792C13.4091 10.3892 13.4428 10.3011 13.5131 10.2312L12.1039 8.81206C11.6417 9.27103 11.4091 9.87602 11.4091 10.4792H13.4091ZM4.64949 10.7271C4.57914 10.6573 4.54545 10.5691 4.54545 10.4792H2.54545C2.54545 11.0823 2.77804 11.6873 3.24022 12.1463L4.64949 10.7271ZM4.54545 10.4792C4.54545 10.3892 4.57914 10.3011 4.64949 10.2312L3.24022 8.81206C2.77804 9.27103 2.54545 9.87602 2.54545 10.4792H4.54545ZM3.54545 9.47917H3.5V11.4792H3.54545V9.47917ZM11.0455 9.47917H6.27273V11.4792H11.0455V9.47917ZM5.16869 10.2312C5.23904 10.3011 5.27273 10.3892 5.27273 10.4792H7.27273C7.27273 9.87602 7.04014 9.27103 6.57797 8.81206L5.16869 10.2312ZM5.27273 10.4792C5.27273 10.5691 5.23904 10.6573 5.16869 10.7271L6.57797 12.1463C7.04014 11.6873 7.27273 11.0823 7.27273 10.4792H5.27273ZM15.5 9.11553C15.5 9.31636 15.3372 9.47917 15.1364 9.47917V11.4792C16.4418 11.4792 17.5 10.4209 17.5 9.11553H15.5ZM12.5 4.03125C14.1569 4.03125 15.5 5.3744 15.5 7.03125H17.5C17.5 4.26983 15.2614 2.03125 12.5 2.03125V4.03125ZM0.5 8.47917C0.5 10.136 1.84314 11.4792 3.5 11.4792V9.47917C2.94772 9.47917 2.5 9.03145 2.5 8.47917H0.5Z" stroke="none"/>
</svg>
