<svg width="14" height="14" viewBox="0 0 14 14" fill="none" xmlns="http://www.w3.org/2000/svg">
<path d="M7.00016 13.6673C3.31816 13.6673 0.333496 10.6827 0.333496 7.00065C0.333496 3.31865 3.31816 0.333984 7.00016 0.333984C10.6822 0.333984 13.6668 3.31865 13.6668 7.00065C13.6668 10.6827 10.6822 13.6673 7.00016 13.6673ZM7.00016 12.334C8.41465 12.334 9.77121 11.7721 10.7714 10.7719C11.7716 9.77169 12.3335 8.41514 12.3335 7.00065C12.3335 5.58616 11.7716 4.22961 10.7714 3.22941C9.77121 2.22922 8.41465 1.66732 7.00016 1.66732C5.58567 1.66732 4.22912 2.22922 3.22893 3.22941C2.22873 4.22961 1.66683 5.58616 1.66683 7.00065C1.66683 8.41514 2.22873 9.77169 3.22893 10.7719C4.22912 11.7721 5.58567 12.334 7.00016 12.334ZM7.00016 6.05798L8.8855 4.17198L9.82883 5.11532L7.94283 7.00065L9.82883 8.88598L8.8855 9.82932L7.00016 7.94332L5.11483 9.82932L4.1715 8.88598L6.0575 7.00065L4.1715 5.11532L5.11483 4.17198L7.00016 6.05798Z" fill="#F04848"/>
</svg>
