<svg width="512" height="512" viewBox="0 0 512 512" fill="none" xmlns="http://www.w3.org/2000/svg">
<g clip-path="url(#clip0_2882_216639)">
<path d="M428.801 453.059V503.467C428.801 505.73 427.902 507.9 426.301 509.501C424.701 511.101 422.531 512 420.267 512C418.004 512 415.834 511.101 414.233 509.501C412.633 507.9 411.734 505.73 411.734 503.467V453.059C411.734 413.812 379.974 382.049 340.723 382.05C322.151 382.05 305.301 372.589 295.648 356.74C294.47 354.808 294.109 352.486 294.643 350.287C295.177 348.088 296.563 346.191 298.496 345.013C300.428 343.836 302.75 343.475 304.949 344.009C307.148 344.543 309.045 345.929 310.223 347.861C316.754 358.582 328.155 364.982 340.723 364.982C389.402 364.982 428.801 404.374 428.801 453.059ZM286.433 386.981L256.001 410.541L204.259 370.482C215.428 361.51 222.65 348.461 223.82 333.639C234.271 336.714 245.108 338.272 256.002 338.266C318.935 338.266 370.135 287.066 370.135 224.132C370.135 223.469 370.15 164.386 370.107 163.725C369.817 159.108 365.968 155.732 361.602 155.732C360.14 155.732 349.626 157.812 339.334 151.62C323.283 141.964 323.201 120.797 323.202 120.585C323.243 113.651 315.403 109.559 309.738 113.567C274.589 138.449 233.433 155.322 188.743 161.578C186.602 161.875 184.654 162.973 183.292 164.651C181.929 166.329 181.255 168.462 181.403 170.618C181.552 172.774 182.514 174.794 184.094 176.268C185.674 177.743 187.755 178.563 189.916 178.563C191.26 178.563 218.93 175.177 250.383 163.753C270.675 156.377 290.088 146.778 308.268 135.131C314.559 158.732 332.198 171.861 353.069 173.046V224.132C353.069 277.655 309.526 321.199 256.003 321.199C202.48 321.199 158.936 277.655 158.936 224.132V164.267C158.936 162.003 158.037 159.833 156.437 158.233C154.836 156.632 152.666 155.733 150.403 155.733C148.14 155.733 145.969 156.632 144.369 158.233C142.769 159.833 141.869 162.003 141.869 164.267V224.133C141.869 269.511 168.491 308.786 206.936 327.168V329.419C206.936 349.089 190.996 364.982 171.281 364.982C160.516 364.974 149.842 366.94 139.786 370.782L134.277 366.397C91.0439 331.987 82.9468 271.243 112.431 226.986C124.996 208.124 132.269 185.564 132.269 161.426V115.204C132.269 61.0912 176.292 17.0667 230.403 17.0667H281.603C335.714 17.0667 379.736 61.0891 379.736 115.2V161.422C379.736 184.9 386.564 207.524 399.481 226.847C423.106 262.187 423.059 308.569 398.648 343.99C397.399 345.854 396.934 348.135 397.355 350.34C397.775 352.544 399.047 354.493 400.895 355.767C402.742 357.04 405.017 357.535 407.226 357.143C409.436 356.751 411.402 355.505 412.699 353.675C441.116 312.443 441.15 258.47 413.669 217.362C402.634 200.855 396.802 181.513 396.802 161.422V115.2C396.802 51.6789 345.123 0 281.602 0H230.402C166.881 0 115.202 51.6811 115.202 115.204V161.422C115.221 181.391 109.312 200.917 98.2247 217.525C63.8193 269.175 73.5697 339.422 123.107 379.308C98.7719 395.272 83.2017 422.382 83.2017 453.059V503.467C83.2017 505.73 84.1008 507.9 85.7011 509.501C87.3014 511.101 89.4719 512 91.7351 512C93.9982 512 96.1687 511.101 97.769 509.501C99.3694 507.9 100.268 505.73 100.268 503.467V453.059C100.268 413.811 132.028 382.049 171.28 382.05C176.935 382.05 182.522 381.153 187.88 379.386L250.777 428.08C252.273 429.238 254.11 429.866 256.001 429.866C257.892 429.866 259.73 429.238 261.225 428.08L296.881 400.476C298.654 399.085 299.805 397.049 300.083 394.812C300.36 392.575 299.741 390.32 298.361 388.537C296.982 386.755 294.953 385.591 292.718 385.3C290.483 385.008 288.223 385.613 286.433 386.981Z" fill="black"/>
</g>
<defs>
<clipPath id="clip0_2882_216639">
<rect width="512" height="512" fill="white"/>
</clipPath>
</defs>
</svg>
