<svg width="24" height="24" viewBox="0 0 24 24" xmlns="http://www.w3.org/2000/svg">
<path stroke="none" d="M12 20L11.7567 20.4368C11.908 20.5211 12.092 20.5211 12.2433 20.4368L12 20ZM12 7.16221L11.5398 7.35776C11.6183 7.54236 11.7994 7.66221 12 7.66221C12.2006 7.66221 12.3817 7.54236 12.4602 7.35776L12 7.16221ZM2.5 8.97234C2.5 12.2128 4.90515 15.0992 7.16735 17.1151C8.31437 18.1373 9.45907 18.9658 10.3159 19.5385C10.7448 19.8252 11.1028 20.0485 11.3546 20.2007C11.4804 20.2769 11.5798 20.3352 11.6483 20.3749C11.6826 20.3947 11.7091 20.4099 11.7273 20.4202C11.7365 20.4254 11.7435 20.4294 11.7484 20.4322C11.7509 20.4336 11.7528 20.4346 11.7542 20.4354C11.7549 20.4358 11.7554 20.4361 11.7559 20.4363C11.7561 20.4365 11.7563 20.4366 11.7564 20.4366C11.7566 20.4367 11.7567 20.4368 12 20C12.2433 19.5632 12.2434 19.5632 12.2434 19.5632C12.2434 19.5632 12.2434 19.5632 12.2433 19.5632C12.2432 19.5631 12.2429 19.563 12.2425 19.5628C12.2417 19.5623 12.2404 19.5616 12.2385 19.5605C12.2348 19.5584 12.2289 19.5551 12.221 19.5506C12.2052 19.5416 12.1812 19.5279 12.1495 19.5096C12.0862 19.4729 11.9922 19.4177 11.872 19.345C11.6315 19.1996 11.2864 18.9844 10.8716 18.7071C10.0409 18.1519 8.93563 17.3514 7.83265 16.3685C5.59485 14.3744 3.5 11.747 3.5 8.97234H2.5ZM12.4602 6.96665C11.3696 4.40031 8.8984 3.23121 6.67851 3.5519C5.56632 3.71257 4.5144 4.24813 3.74198 5.16867C2.96819 6.09084 2.5 7.36885 2.5 8.97234H3.5C3.5 7.56827 3.90681 6.52796 4.50802 5.81146C5.1106 5.09333 5.93368 4.66988 6.82149 4.54163C8.6016 4.28447 10.6304 5.21786 11.5398 7.35776L12.4602 6.96665ZM20.5 8.97234C20.5 11.747 18.4052 14.3744 16.1674 16.3685C15.0644 17.3514 13.9591 18.1519 13.1284 18.7071C12.7136 18.9844 12.3685 19.1996 12.128 19.345C12.0078 19.4177 11.9138 19.4729 11.8505 19.5096C11.8188 19.5279 11.7948 19.5416 11.779 19.5506C11.7711 19.5551 11.7652 19.5584 11.7615 19.5605C11.7596 19.5616 11.7583 19.5623 11.7575 19.5628C11.7571 19.563 11.7568 19.5631 11.7567 19.5632C11.7566 19.5632 11.7566 19.5632 11.7566 19.5632C11.7566 19.5632 11.7567 19.5632 12 20C12.2433 20.4368 12.2434 20.4367 12.2436 20.4366C12.2437 20.4366 12.2439 20.4365 12.2441 20.4363C12.2446 20.4361 12.2451 20.4358 12.2458 20.4354C12.2472 20.4346 12.2491 20.4336 12.2516 20.4322C12.2565 20.4294 12.2635 20.4254 12.2727 20.4202C12.2909 20.4099 12.3174 20.3947 12.3517 20.3749C12.4202 20.3352 12.5196 20.2769 12.6454 20.2007C12.8972 20.0485 13.2552 19.8252 13.6841 19.5385C14.5409 18.9658 15.6856 18.1373 16.8326 17.1151C19.0948 15.0992 21.5 12.2128 21.5 8.97234H20.5ZM12.4602 7.35776C13.3696 5.21786 15.3984 4.28447 17.1785 4.54163C18.0663 4.66988 18.8894 5.09333 19.492 5.81146C20.0932 6.52796 20.5 7.56827 20.5 8.97234H21.5C21.5 7.36885 21.0318 6.09084 20.258 5.16867C19.4856 4.24813 18.4337 3.71257 17.3215 3.5519C15.1016 3.23121 12.6304 4.40031 11.5398 6.96665L12.4602 7.35776Z"/>
</svg>
