<svg width="20" height="20" viewBox="0 0 20 20" stroke="#262626" fill="#262626" xmlns="http://www.w3.org/2000/svg">
<path d="M10 17.5C14.1421 17.5 17.5 14.1421 17.5 10C17.5 5.85786 14.1421 2.5 10 2.5C5.85786 2.5 2.5 5.85786 2.5 10C2.5 14.1421 5.85786 17.5 10 17.5Z" fill="none" stroke-width="2" stroke-linecap="round" stroke-linejoin="round"/>
<path d="M11.25 13.333C11.25 14.0234 10.6904 14.583 10 14.583C9.30964 14.583 8.75 14.0234 8.75 13.333C8.75 12.6427 9.30964 12.083 10 12.083C10.6904 12.083 11.25 12.6427 11.25 13.333Z" stroke="none" fill="#262626"/>
<path d="M8.82149 6.76152C9.14618 6.43683 9.5715 6.27411 9.99706 6.27337C10.4246 6.27262 10.8523 6.43533 11.1785 6.76152C11.5039 7.08696 11.6667 7.51349 11.6667 7.94003C11.6667 8.36657 11.5039 8.79311 11.1785 9.11854C10.8523 9.44473 10.4246 9.60744 9.99706 9.60669L10 10.44" fill="none" stroke-width="2" stroke-linecap="round" stroke-linejoin="round"/>
</svg>
