<svg width="512" height="512" viewBox="0 0 512 512" fill="none" xmlns="http://www.w3.org/2000/svg">
<path d="M428.778 453.067V503.468C428.778 505.731 427.879 507.901 426.279 509.501C424.679 511.101 422.509 512 420.246 512C417.983 512 415.813 511.101 414.213 509.501C412.613 507.901 411.714 505.731 411.714 503.468V453.067C411.714 413.824 379.958 382.066 340.712 382.067C322.143 382.067 305.295 372.607 295.642 356.761C295.059 355.804 294.67 354.741 294.498 353.634C294.325 352.527 294.373 351.397 294.637 350.308C294.902 349.219 295.378 348.193 296.039 347.288C296.7 346.384 297.533 345.618 298.49 345.035C299.447 344.452 300.51 344.064 301.617 343.891C302.724 343.719 303.854 343.767 304.943 344.031C306.032 344.296 307.058 344.772 307.962 345.433C308.867 346.094 309.633 346.927 310.216 347.884C316.745 358.603 328.145 365.003 340.712 365.003C389.385 365 428.778 404.389 428.778 453.067ZM279.885 367.539C280.367 369.75 279.95 372.062 278.728 373.966C277.505 375.87 275.576 377.21 273.365 377.692C250.91 382.584 228.073 377.687 209.89 365.276C191.889 384.566 168.107 382.067 171.291 382.067C132.048 382.066 100.289 413.821 100.289 453.067V503.468C100.289 505.731 99.3901 507.901 97.79 509.501C96.1899 511.101 94.0197 512 91.7568 512C89.4939 512 87.3237 511.101 85.7236 509.501C84.1235 507.901 83.2246 505.731 83.2246 503.468V453.067C83.2246 404.395 122.61 365.003 171.289 365.003C190.979 365.003 206.942 349.138 206.942 329.443V327.195C169.7 309.388 143.559 271.966 141.966 228.389C126.64 224.704 115.22 210.987 115.22 194.666V150.433C114.754 128.783 117.969 74.5576 157.506 36.4463C206.326 -10.6152 284.618 -7.62577 342.187 20.0879C347.798 22.7916 348.65 30.3724 343.99 34.2983C373.155 41.4121 398.303 59.3404 414.46 84.9989C415.294 86.3203 416.821 88.3947 416.422 91.7041C416.175 93.7636 415.562 95.5063 413.975 97.1167C403.576 107.663 397.85 121.637 397.85 136.467V194.668C397.85 196.931 396.951 199.101 395.351 200.701C393.751 202.301 391.581 203.2 389.318 203.2C387.055 203.2 384.885 202.301 383.285 200.701C381.685 199.101 380.786 196.931 380.786 194.668V136.467C380.786 119.363 386.629 103.129 397.362 90.0873C381.003 66.6919 355.481 51.6454 326.617 48.5546L311.62 46.9484C302.851 46.0099 301.131 33.9293 309.28 30.5751L316.101 27.7669C227.274 -3.19969 132.284 31.2075 132.284 150.341V194.666C132.284 201.436 136.183 207.32 141.883 210.275V154.962C141.883 122.03 168.676 95.2365 201.608 95.2365H310.394C343.326 95.2365 370.119 122.028 370.119 154.959V224.819C370.119 299.022 297.608 355.384 223.824 333.662C223.355 339.684 221.845 345.579 219.359 351.084C233.713 360.941 251.838 364.917 269.731 361.018C271.942 360.537 274.254 360.953 276.158 362.176C278.062 363.399 279.403 365.328 279.885 367.539ZM256.001 321.225C309.517 321.225 353.055 277.687 353.055 224.171V154.959C353.055 131.438 333.917 112.301 310.394 112.301H201.608C178.085 112.301 158.947 131.439 158.947 154.962V224.171C158.947 277.687 202.485 321.225 256.001 321.225ZM342.39 468.272H316.793C314.53 468.272 312.36 469.171 310.76 470.771C309.16 472.371 308.261 474.542 308.261 476.805C308.261 479.067 309.16 481.238 310.76 482.838C312.36 484.438 314.53 485.337 316.793 485.337H342.39C344.652 485.337 346.823 484.438 348.423 482.838C350.023 481.238 350.922 479.067 350.922 476.805C350.922 474.542 350.023 472.371 348.423 470.771C346.823 469.171 344.652 468.272 342.39 468.272Z" fill="black"/>
</svg>
