<svg xmlns="http://www.w3.org/2000/svg" version="1.1" width="512" height="512" x="0" y="0" viewBox="0 0 64 64">
    <path d="m32 2.67c-16.17 0-29.33 13.16-29.33 29.33 0 10.05 5.05 19.28 13.521 24.71 1.34.86 2.76 1.62 4.199 2.23 3.66 1.59 7.57 2.39 11.61 2.39 3.97 0 7.81-.77 11.43-2.3 1.57-.67 3.07-1.47 4.46-2.37 8.42-5.43 13.44-14.65 13.44-24.66 0-16.17-13.16-29.33-29.33-29.33zm11.6 55.17c-.319-1.55-.6-2.75-.6-2.75-.06-.27-.33-.44-.6-.37-.271.06-.44.33-.37.59 0 .01.29 1.3.63 2.95-3.38 1.37-6.96 2.07-10.66 2.07-3.79 0-7.46-.74-10.91-2.18.18-1.46.32-2.57.32-2.58.03-.27-.16-.52-.44-.55-.27-.03-.52.15-.55.43 0 0-.13.96-.28 2.27-1.069-.5-2.12-1.05-3.13-1.69 1.15-4.25 2.49-7.25 3.62-8.05 1.32-.94 2.83-1.45 3.87-1.7-.51 1.42-.82 3.15-.48 5.06.03.18.16.32.33.38.11 0 3.851-1.16 5.301-1.48l1.649 1.89c.09.1.22.16.36.17h.02c.13 0 .25-.05.351-.14l2-1.92c1.41.32 5.02 1.52 5.14 1.52.061 0 .36.18.48-.42.38-1.95.04-3.71-.511-5.16 1.851.47 3.95 1.24 4.841 2.14.939 1.09 2.229 4.71 3.029 7.7-1.08.68-2.23 1.29-3.41 1.82zm-17.28-11.4 2.59 2.95c-1.54.4-3.91 1.19-3.99 1.21-.25-2.3.521-4.29 1.28-5.64v1.15c0 .12.04.24.12.33zm-5.61-19.75c-.27-.76-.52-1.86-.56-3.18-.021-.5-.061-1.07-.101-1.68-.149-2.18-.38-5.48.76-6.03 1.591-.77 2.61-.78 2.65-.78.21-.01.45-.16.5-.4.01-.02.521-2.42 2.97-3.01 1.57-.38 4.25-.57 6.4-.73.84-.06 1.5-.11 2.01-.16-.149.11-.33.18-.52.18-.271 0-.48.2-.5.46-.021.26.16.49.41.53.26.04.569.07.92.11 1.77.18 4.43.44 6.01 2.58 1.21 1.58 2.26 3.07 2.7 3.8-.101-.01-.17-.03-.21-.07-.181-.19-.48-.2-.69-.03-.19.17-.229.46-.07.67.341.6 1.07 5.79.17 8.15-.199.52-1.84 2.4-2.18 2.86-.1-.24-.8-.71-.88-.67-.32-1.6-.95-4.51-1.46-5.29-.13-.2-.76-.1-.82-.03-.56-2.15-1.54-4.8-3.12-6.31-.149-.14-.369-.18-.55-.1-.47.22-1.96.77-3.21.77-.399 0-.72-.07-.99-.18-.729-.75-.979-1.61-.989-1.62-.07-.26-.351-.42-.61-.34-.27.08-.42.35-.35.62.01.03.18.61.63 1.29 0 0-1.891-.14-2.32-.4-.5-.78-.59-1.84-.59-1.85-.03-.28-.271-.47-.54-.46-.28.02-.48.26-.46.54 0 .04.08.91.46 1.77-.34.06-.63.08-.811-.01-.539-.63-.88-1.41-.89-1.42-.1-.25-.399-.37-.649-.26-.261.11-.37.4-.271.66.021.03.31.71.82 1.38-.82.6-2.4 1.85-2.221 6.12-.158.35-.608 1.39-.848 2.52zm.54 7.11c-1.23-.31-1.84-.99-1.82-2.04.03-1.08.471-1.83 1.271-2.27.129 1.25.319 2.8.549 4.31zm22.4-3.65c.46.43.85 1.03.699 1.82-.21 1.11-.72 1.7-1.199 2 .22-1.32.38-2.68.5-3.82zm-21.14-5.66c.04-.07.05-.16.05-.24-.189-3.94 1.15-4.91 1.87-5.44.051-.04.11-.08.15-.12.46.13 1.06.05 1.66-.1.729.42 1.72.51 2.46.51.39 0 .8-.02 1.13-.07.41.2.92.3 1.51.3 1.19 0 2.53-.41 3.3-.72 2.471 2.69 3.261 8.82 3.271 8.88.03.25.24.44.49.44.26 0 .47-.19.5-.44.01-.06.029-.27.06-.55.29 1.18.58 2.55.76 3.56.04.19.181.35.37.39.2.05.53-.2.53-.2.08.18 1.172 1.37 2.06-.82-.149 1.4-.37 3.19-.66 4.82-.31 1.67-.63 2.84-.97 3.49-1.18 2.32-2.96 4.56-7.89 5.19-4.98.64-8.74-2.49-9.811-4.92-.34-.75-.67-2.14-1-4.11-.319-1.97-.58-4.16-.729-5.64l-.08-.67c.029-1.55.959-3.52.969-3.54zm15.02 22.39c.09-.09.149-.22.149-.36v-1.15c.66 1.31 1.29 3.15 1.061 5.23-.09-.03-.2-.06-.311-.1-.939-.31-2.359-.78-3.54-1.09zm-5.82 4.2-1.49-1.72c-.02-.02-.04-.04-.06-.06l-2.96-3.38v-2.53c1.35.65 2.93 1.06 4.67 1.06.46 0 .93-.03 1.42-.09 1.32-.17 2.44-.45 3.39-.82v2.77zm16.18 4.37c-.659-2.41-1.96-6.4-3.17-7.81-1.439-1.46-4.76-2.32-6.08-2.62-.33-.64-.659-1.18-.96-1.61v-.32c2.271-1.15 3.431-2.83 4.261-4.45.359-.7.689-1.85 1-3.47 1.229-.4 2.109-1.5 2.39-3.02.3-1.62-.83-2.68-1.561-3.18l.04-.43c.341-.32.61-.79.801-1.41.659-2.16.359-5.91-.061-7.75.32-.03.65-.13.82-.26.37-.3.64-.51-2.91-5.14-1.62-2.2-4.2-2.69-6.03-2.9.24-.29.41-.61.49-.89.05-.18-.01-.38-.15-.51-.14-.12-.35-.16-.529-.09-.25.1-1.7.2-2.99.29-2.18.16-4.9.36-6.55.76-2.45.59-3.34 2.57-3.62 3.41-.5.06-1.45.24-2.71.85-1.74.85-1.521 4.11-1.32 7 .04.59.08 1.16.101 1.64.069 2.19.71 4.14 1.35 4.91-.9.4-2.01 1.29-2.07 3.28-.04 1.67 1.03 2.76 2.99 3.12.33 1.87.67 3.23 1.01 4.01.601 1.34 1.92 2.87 3.771 3.99v.26c-.34.46-.811 1.16-1.23 2.04-1.04.2-3.13.73-4.92 2.01-1.66 1.18-3.02 5.02-3.92 8.3-7.813-5.29-12.463-14-12.463-23.46 0-15.62 12.71-28.33 28.33-28.33s28.33 12.71 28.33 28.33c0 9.45-4.64 18.16-12.44 23.45z"></path>
</svg>