<svg width="20" height="20" viewBox="0 0 20 20" stroke="#262626" fill="none" xmlns="http://www.w3.org/2000/svg">
<path d="M3.33301 17.4997V8.33301" fill="none" stroke-width="2" stroke-linecap="round" stroke-linejoin="round"/>
<path d="M16.667 17.4997V8.33301" fill="none" stroke-width="2" stroke-linecap="round" stroke-linejoin="round"/>
<path d="M3.33301 17.5L16.6663 17.5" fill="none" stroke-width="2" stroke-linecap="round" stroke-linejoin="round"/>
<path d="M8.33301 12.4997C8.33301 11.5792 9.0792 10.833 9.99967 10.833V10.833C10.9201 10.833 11.6663 11.5792 11.6663 12.4997V17.4997H8.33301V12.4997Z" fill="none"  stroke-width="2"/>
<path d="M1.6454 5.31267L2.7504 3.47101C3.11185 2.8686 3.76286 2.5 4.46539 2.5H15.534C16.2365 2.5 16.8875 2.8686 17.2489 3.47101L18.3539 5.31267C18.8138 6.07905 18.6121 7.06972 17.8893 7.5954C17.2844 8.03533 16.4649 8.03533 15.86 7.5954L14.583 6.66667L13.4677 7.47781C12.7664 7.98785 11.8163 7.98785 11.115 7.47781L9.99967 6.66667L8.88435 7.47781C8.18305 7.98785 7.23297 7.98785 6.53166 7.47781L5.41634 6.66667L4.13934 7.5954C3.53443 8.03533 2.71492 8.03533 2.11001 7.5954C1.38721 7.06972 1.18558 6.07905 1.6454 5.31267Z" fill="none"  stroke-width="2" stroke-linecap="round" stroke-linejoin="round"/>
</svg>
