<svg xmlns="http://www.w3.org/2000/svg" version="1.1" width="512" height="512" x="0" y="0" viewBox="0 0 32 32">
    <path d="m25.67 29.4c-.02 0-.04 0-.06 0-1.66-.21-3.26-.56-4.76-1.05-8.55-2.71-15.09-9.5-17.48-18.16-.36-1.3-.62-2.62-.77-3.91-.01-.07 0-.14.02-.2.56-1.82 2.22-3.17 4.23-3.42.17-.04.41-.06.72-.06 1.06 0 2.07.29 2.92.85.09.06.15.14.19.23l1.85 4.64c.04.1.05.21.02.32-.42 1.57-1.64 2.81-3.23 3.34 2.11 4.65 5.77 8.37 10.37 10.54.58-1.06 1.58-1.88 2.79-2.28.09-.03.19-.03.28-.01l5.02 1.11c.1.02.19.07.25.14.89.89 1.38 2.06 1.38 3.29 0 .15 0 .29-.03.43-.15 1.92-1.55 3.58-3.56 4.19-.05 0-.1.01-.15.01zm-22.07-23.13c.15 1.21.39 2.43.74 3.64 2.3 8.33 8.59 14.87 16.82 17.48 1.41.46 2.92.8 4.47 1 1.56-.51 2.64-1.81 2.76-3.33.02-.13.02-.21.02-.3 0-.92-.35-1.8-1-2.48l-4.74-1.05c-1.05.39-1.88 1.16-2.28 2.14-.05.13-.15.22-.28.27s-.27.05-.39-.01c-5.22-2.32-9.32-6.51-11.56-11.79-.06-.14-.05-.29.02-.43.07-.13.19-.23.34-.26 1.43-.3 2.6-1.33 3.02-2.63l-1.73-4.31c-.82-.49-1.86-.75-2.81-.57-1.61.2-2.92 1.23-3.4 2.63z" fill="#000000"></path>
</svg>