<svg width="20" height="18" viewBox="0 0 20 18" fill="none" xmlns="http://www.w3.org/2000/svg">
<path d="M0.841934 8.63986L5.32508 10.4088L7.07273 16.3589C7.14872 16.761 7.60463 16.8414 7.90857 16.6002L10.4161 14.4292C10.644 14.1879 11.024 14.1879 11.3279 14.4292L15.811 17.8867C16.115 18.1279 16.5709 17.9671 16.6469 17.565L19.9902 0.67956C20.0662 0.277525 19.6863 -0.124507 19.3064 0.0363074L0.841934 7.59457C0.386022 7.75538 0.386022 8.47904 0.841934 8.63986ZM6.84478 9.52433L15.6591 3.81544C15.811 3.73503 15.963 3.97625 15.811 4.05666L8.59244 11.2129C8.36448 11.4541 8.13652 11.7757 8.13652 12.1778L7.90857 14.1075C7.90857 14.3488 7.52864 14.4292 7.45266 14.1075L6.54082 10.5696C6.31287 10.1676 6.46486 9.68515 6.84478 9.52433Z" fill="#2F89CE"/>
</svg>
