<svg width="19" height="19" viewBox="0 0 19 19" fill="none" xmlns="http://www.w3.org/2000/svg">
<path d="M15.9664 3.02441C14.2731 1.33691 12.0152 0.399414 9.63194 0.399414C4.67724 0.399414 0.663303 4.39941 0.663303 9.33691C0.663303 10.8994 1.10233 12.4619 1.85494 13.7744L0.600586 18.3994L5.36714 17.1494C6.68421 17.8369 8.12672 18.2119 9.63194 18.2119C14.5866 18.2119 18.6006 14.2119 18.6006 9.27441C18.5379 6.96191 17.6598 4.71191 15.9664 3.02441ZM13.9595 12.5244C13.7713 13.0244 12.8933 13.5244 12.4542 13.5869C12.0779 13.6494 11.5762 13.6494 11.0745 13.5244C10.7609 13.3994 10.3218 13.2744 9.8201 13.0244C7.56226 12.0869 6.11975 9.83691 5.99432 9.64941C5.86888 9.52441 5.05355 8.46191 5.05355 7.33691C5.05355 6.21191 5.61801 5.71191 5.80616 5.46191C5.99431 5.21191 6.24518 5.21191 6.43334 5.21191C6.55877 5.21191 6.74692 5.21191 6.87236 5.21191C6.9978 5.21191 7.18595 5.14941 7.3741 5.58691C7.56226 6.02441 8.00128 7.14941 8.064 7.21191C8.12672 7.33691 8.12672 7.46191 8.064 7.58691C8.00128 7.71191 7.93856 7.83691 7.81313 7.96191C7.68769 8.08691 7.56226 8.27441 7.49954 8.33691C7.3741 8.46191 7.24867 8.58691 7.3741 8.77441C7.49954 9.02441 7.93856 9.71191 8.62846 10.3369C9.50651 11.0869 10.1964 11.3369 10.4473 11.4619C10.6981 11.5869 10.8236 11.5244 10.949 11.3994C11.0745 11.2744 11.5135 10.7744 11.6389 10.5244C11.7643 10.2744 11.9525 10.3369 12.1407 10.3994C12.3288 10.4619 13.4577 11.0244 13.6459 11.1494C13.8968 11.2744 14.0222 11.3369 14.0849 11.3994C14.1476 11.5869 14.1476 12.0244 13.9595 12.5244Z" fill="#48C95F"/>
</svg>
