<svg xmlns="http://www.w3.org/2000/svg" version="1.1" width="512" height="512" x="0" y="0" viewBox="0 0 64 64">
    <path d="m19.837 20.729c-.265-.083-.544.067-.624.331-.078.254-1.902 6.28-.955 11.793.042.244.254.416.492.416.028 0 .057-.003.086-.008.271-.047.455-.305.408-.578-.907-5.272.906-11.27.924-11.33.081-.263-.066-.542-.331-.624z"></path>
    <path d="m41.971 16.991c-.255.107-.374.401-.267.655.025.06 2.532 6.063 2.191 11.393-.018.275.191.513.467.531.011 0 .022.001.032.001.262 0 .482-.204.499-.468.355-5.57-2.161-11.592-2.268-11.846-.107-.256-.402-.372-.654-.266z"></path>
    <path d="m32 2.29c-16.38 0-29.71 13.33-29.71 29.71 0 8.12 3.22 15.71 9.06 21.35 1.841 1.79 3.91 3.33 6.15 4.58 4.42 2.471 9.43 3.78 14.5 3.78 5.19 0 10.29-1.36 14.75-3.93 2.15-1.221 4.16-2.74 5.98-4.511 5.79-5.629 8.98-13.189 8.98-21.269 0-16.38-13.33-29.71-29.71-29.71zm-14.66 54.37c-1.84-1.09-3.55-2.38-5.1-3.86.01-.06.02-.109.029-.17l5.32 2.54c-.119.55-.199 1.08-.249 1.49zm27.6-3.07c.199.271.399.74.569 1.32.2.72.34 1.52.44 2.16-4.23 2.38-9.05 3.64-13.95 3.64-4.79 0-9.53-1.22-13.72-3.51.06-.55.18-1.4.38-2.19.17-.71.39-1.26.63-1.59.16-.22.11-.54-.12-.7-.22-.16-.54-.109-.7.12-.229.33-.439.78-.62 1.351l-5.39-2.58c.83-3.79 2.24-5.21 4.11-5.94.5 1.85 1.04 3.45 1.05 3.47.06.19.229.32.42.341.21.01.39-.08.49-.261l.37-.66c1.01 2.79 2.359 4.87 2.42 4.96.13.2.37.28.58.2.22-.069.359-.29.34-.51l-.021-.24c1.36 1.55 3.29 2.23 3.41 2.271.05.02.11.029.16.029.12 0 .229-.039.32-.119.13-.11.199-.28.17-.45l-.351-2.37c.2.12.41.229.63.32 2.101.869 4.271 1.3 6.21 1.3 2.19 0 4.101-.54 5.33-1.62.381-.33.69-.67.98-1.021l.75 1.78c.08.19.26.311.46.311h.04c.2-.021.42-.04.79-.7l-.15 2.62c-.01.149.061.3.181.399.09.08.39.12.43.11 1.11-.25 1.75-2.28 2.1-4.16.051.05.11.08.181.1.189.051.38 0 .51-.149.12-.12.22-.3.33-.5.319.689.63 1.12.649 1.14.101.13.25.21.41.21.08 0 .16-.02.23-.06.22-.12.319-.38.229-.61-.1-.46.53-3.29 1.03-4.85.07-.19.16-.59.25-1.09 2.18 1.199 3.55 3.14 4.16 5.909l-5.36 2.32c-.17-.45-.35-.82-.56-1.1-.16-.221-.48-.271-.7-.101-.217.16-.267.48-.097.7zm1.03-16.14c-.279 0-.5.21-.51.49 0 .029-.09 3.25-.42 6.51-.19 2.069-.46 3.74-.76 4.899-.04.03-.07.061-.101.101l-.13-.72c-.04-.25-.24-.461-.51-.421-.25.011-.45.21-.48.46-.149 1.851-.55 3.891-1.01 5.08l.24-4.18c.06-.26-.08-.5-.33-.58-.26-.09-.55.07-.64.33-.011.03-.71 2.05-.91 2.47l-.641-1.54c1.07-1.77 1.4-3.939 1.011-6.58.1-.09.17-.21.18-.35.021-.27.04-.58.06-.939.15-2.48.4-6.881.45-9.74 0-.02.011-2.33.011-2.75 0-3.69-.021-11.3-3.051-15.05-.02-.03-.04-.06-.06-.09-.78-.93-1.74-1.62-2.95-1.93-.27-.07-.54.09-.6.36-.019.06-.019.12-.009.18-1.09-.15-2.02-.07-2.649.04.72-.98 2.31-.91 2.33-.91.279.02.51-.19.52-.47.021-.27-.189-.51-.46-.53-.08 0-1.42-.07-2.49.63-.02-.26-.05-.5-.09-.73.61-.13 1.471-.13 1.82-.11.28.03.51-.2.52-.47.021-.28-.189-.51-.47-.53-.1-.01-.67-.03-1.31.02 1.38-.59 3.34-1.1 4.46.08.189.2.51.21.71.02s.21-.51.02-.71c-1.741-1.83-4.651-.79-6.231-.01-.3-.67-.7-1.16-1.221-1.45-1.42-.8-3.02.21-3.079.25-.24.15-.301.46-.15.69.14.23.45.3.68.15.021 0 1.17-.72 2.07-.21.45.25.94.89 1.18 2.36-.739-.4-1.75-.67-3.14-.52-.271.03-.47.27-.44.55.03.27.28.47.551.44 1.609-.17 2.59.33 3.17.82.01.23.01.5.01.76-.811-.11-1.54-.12-2.21-.05.02-.07.02-.15.01-.22-.07-.27-.33-.44-.6-.38-.34.08-8.24 2.11-6.67 18.84.01.02.189 1.69.3 2.54.51 3.891.859 6.681 1.109 8.69 0 0-.372.226-.38.64-.041 2.16.4 5.57 2.09 7.61l.391 2.66c-1.021-.52-2.731-1.64-3.161-3.46-.07-.25-.31-.42-.57-.37-.26.04-.439.27-.42.53l.03.33c-.51-1.011-1.11-2.341-1.55-3.801-.49-1.569-.73-3.02-.71-4.31 0-.28-.221-.51-.49-.51h-.01c-.271 0-.5.22-.5.489-.02 1.342.22 2.822.69 4.412l-.26.471c-.23-.731-.54-1.771-.82-2.841-.199-.819-.489-2.01-.6-2.97-.31-2.32-.22-7.229.25-14.23.16-2.34 1.24-14.25 7.13-18.37 2.061-1.45 4.53-1.77 7.35-.95.07.02.431-.03.61-.07 5.9-1.37 10.25 1.64 12.91 8.97 4.09 11.26 2.05 25.09 1.6 27.75-.17.98-.29 1.48-.34 1.62-.01.03-.59 1.971-.899 3.58-.061-.17-.12-.35-.17-.529.409-1.53.659-3.631.81-5.141.33-3.3.42-6.55.42-6.59.009-.27-.211-.5-.491-.51zm-13.75 1.8c-.999.05-2.12-.12-3.359-.37-.721-.149-1.431-.5-2.11-1.05-2.04-1.64-3.44-4.57-4.11-6.21-.92-9.93 1.66-14.36 3.69-16.28 1.04-.55 2.72-1.08 5.07-.68.08.01.17.01.239-.02.04-.01 3.04-.98 6.011.91 2.819 3.51 2.83 11.17 2.83 14.45 0 .42.01 2.01-.011 2.61-.05.15-1.199 6.286-8.25 6.64zm8.16-3.85c-.01.3-.35 6.819-.37 7.199-1.359-.89-1.859-2.72-2.02-4.279 1.26-.695 2.4-2.95 2.39-2.92zm-14.49 2.99c-.21.811-.979 2.19-1.96 3.53-.23-1.82-.53-4.19-.93-7.25.74 1.32 1.71 2.7 2.89 3.72zm-1.92 5.12c1.11-1.359 2.28-3.16 2.75-4.46.63.4 1.28.681 1.94.811 1.02.199 2.229.39 3.51.39 1.62 0 3.34-.3 4.89-1.26.271 1.75.99 3.67 2.681 4.59.45 2.67.14 4.79-.95 6.47-.35.54-.79 1.04-1.35 1.53-2.061 1.79-6.37 1.86-10.5.15-2.66-1.101-3.19-5.33-3.261-7.881zm22.91 13.02c-.08-.46-.18-.971-.3-1.471l5.14-2.22c-1.49 1.411-3.12 2.651-4.84 3.691zm5.83-4.67c-.67-3.36-2.32-5.66-5.03-7.03.551-3.4 2.32-16.84-1.699-27.9-1.971-5.42-6.011-11.48-14.081-9.6-.08.02-.16.04-.21.05-3.08-.87-5.8-.49-8.1 1.12-6.25 4.38-7.39 16.7-7.55 19.13-.33 4.92-.64 11.41-.25 14.41.11.86.33 1.83.53 2.67-2.681 1.03-4.13 3.11-4.92 7.08-.011.05-.021.11-.03.16-5.21-5.38-8.08-12.42-8.08-19.95 0-15.83 12.88-28.71 28.71-28.71s28.71 12.88 28.71 28.71c0 7.49-2.84 14.5-8 19.86z"></path></svg>